<svg width="18" height="122" viewBox="0 0 18 122" fill="none" xmlns="http://www.w3.org/2000/svg">
<path d="M5.16619 110.689L5.16619 112.683C4.74006 112.76 4.36506 112.903 4.04119 113.112C3.71733 113.32 3.44247 113.576 3.21662 113.879C2.99077 114.181 2.82031 114.52 2.70526 114.895C2.5902 115.266 2.53267 115.66 2.53267 116.077C2.53267 116.832 2.7223 117.507 3.10156 118.104C3.48082 118.696 4.03693 119.165 4.76989 119.51C5.50284 119.851 6.39773 120.021 7.45455 120.021C8.51989 120.021 9.41903 119.851 10.152 119.51C10.8849 119.165 11.4389 118.694 11.8139 118.097C12.1889 117.501 12.3764 116.83 12.3764 116.084C12.3764 115.67 12.321 115.278 12.2102 114.908C12.0952 114.533 11.9268 114.194 11.7053 113.891C11.4837 113.589 11.2131 113.333 10.8935 113.124C10.5696 112.911 10.1989 112.764 9.78125 112.683L9.78764 110.689C10.4311 110.795 11.0234 111.002 11.5646 111.309C12.1016 111.612 12.5661 112.001 12.9581 112.479C13.3459 112.952 13.6463 113.493 13.8594 114.102C14.0724 114.712 14.179 115.376 14.179 116.097C14.179 117.23 13.9105 118.24 13.3736 119.126C12.8324 120.013 12.0589 120.712 11.0533 121.223C10.0476 121.73 8.84801 121.984 7.45455 121.984C6.05682 121.984 4.85724 121.728 3.85582 121.217C2.85014 120.705 2.07883 120.006 1.5419 119.12C1.00071 118.234 0.730113 117.226 0.730113 116.097C0.730113 115.402 0.830255 114.754 1.03054 114.153C1.22656 113.548 1.51633 113.005 1.89986 112.523C2.27912 112.042 2.74361 111.643 3.29332 111.328C3.83878 111.013 4.46307 110.8 5.16619 110.689ZM14 108.479L4.18182 108.479L4.18182 106.568L8.29829 106.568L8.29829 105.647L4.18182 102.406L4.18182 100.041L8.95668 103.845L14 99.9966L14 102.368L10.0753 105.328L10.0753 106.568L14 106.568L14 108.479ZM14.1982 94.7807C14.1982 95.7012 13.9872 96.5044 13.5653 97.1905C13.1435 97.8766 12.5533 98.4093 11.7947 98.7885C11.0362 99.1678 10.1499 99.3574 9.13565 99.3574C8.11719 99.3574 7.22656 99.1678 6.46378 98.7885C5.70099 98.4093 5.10866 97.8766 4.68679 97.1905C4.26491 96.5044 4.05398 95.7012 4.05398 94.7807C4.05398 93.8603 4.26491 93.057 4.68679 92.3709C5.10866 91.6848 5.70099 91.1522 6.46378 90.7729C7.22656 90.3936 8.11719 90.204 9.13565 90.204C10.1499 90.204 11.0362 90.3936 11.7947 90.7729C12.5533 91.1522 13.1435 91.6848 13.5653 92.3709C13.9872 93.057 14.1982 93.8603 14.1982 94.7807ZM12.5937 94.7743C12.5937 94.1777 12.4361 93.6834 12.1207 93.2914C11.8054 92.8993 11.3857 92.6096 10.8615 92.4221C10.3374 92.2303 9.75994 92.1344 9.12926 92.1344C8.50284 92.1344 7.92756 92.2303 7.40341 92.4221C6.875 92.6096 6.45099 92.8993 6.13139 93.2914C5.81179 93.6834 5.65199 94.1777 5.65199 94.7743C5.65199 95.3752 5.81179 95.8738 6.13139 96.2701C6.45099 96.6621 6.875 96.954 7.40341 97.1458C7.92756 97.3333 8.50284 97.427 9.12926 97.427C9.75994 97.427 10.3374 97.3333 10.8615 97.1458C11.3857 96.954 11.8054 96.6621 12.1207 96.2701C12.4361 95.8738 12.5937 95.3752 12.5937 94.7743ZM14 88.0707L4.18182 88.0707L4.18182 80.0614L14 80.0614L14 81.9343L5.83096 81.9343L5.83096 86.2106L14 86.2106L14 88.0707ZM11.3217 75.6333L4.18182 71.3059L4.18182 69.2477L14 69.2477L14 71.1206L6.85369 71.1206L14 75.4288L14 77.5062L4.18182 77.5062L4.18182 75.6333L11.3217 75.6333ZM17.6818 66.6781L4.18182 66.6781L4.18182 64.8116L5.77343 64.8116L5.77343 64.6518C5.56889 64.541 5.33238 64.3812 5.06392 64.1724C4.79545 63.9636 4.56108 63.6738 4.36079 63.3031C4.15625 62.9324 4.05397 62.4423 4.05397 61.8329C4.05397 61.0403 4.25426 60.3329 4.65483 59.7108C5.05539 59.0886 5.63281 58.6007 6.38707 58.247C7.14133 57.889 8.049 57.71 9.11008 57.71C10.1712 57.71 11.081 57.8869 11.8395 58.2406C12.5937 58.5943 13.1754 59.0801 13.5845 59.698C13.9893 60.3159 14.1918 61.0211 14.1918 61.8137C14.1918 62.4103 14.0916 62.8983 13.8913 63.2775C13.691 63.6525 13.4567 63.9466 13.1882 64.1596C12.9197 64.3727 12.6811 64.5368 12.4723 64.6518L12.4723 64.7669L17.6818 64.7669L17.6818 66.6781ZM9.09091 64.8052C9.78125 64.8052 10.3864 64.7051 10.9062 64.5048C11.4261 64.3045 11.8331 64.0147 12.1271 63.6355C12.4169 63.2562 12.5618 62.7917 12.5618 62.242C12.5618 61.671 12.4105 61.1937 12.108 60.8102C11.8011 60.4267 11.3857 60.1369 10.8615 59.9409C10.3374 59.7406 9.74716 59.6404 9.09091 59.6404C8.44318 59.6404 7.8615 59.7385 7.34588 59.9345C6.83025 60.1262 6.42329 60.416 6.125 60.8038C5.8267 61.1873 5.67755 61.6667 5.67755 62.242C5.67755 62.796 5.82031 63.2647 6.10582 63.6483C6.39133 64.0275 6.78977 64.3152 7.30113 64.5112C7.8125 64.7072 8.40909 64.8052 9.09091 64.8052ZM14.1982 51.4331C14.1982 52.3535 13.9872 53.1568 13.5653 53.8429C13.1435 54.5289 12.5533 55.0616 11.7947 55.4409C11.0362 55.8201 10.1499 56.0098 9.13565 56.0098C8.11718 56.0098 7.22656 55.8201 6.46378 55.4409C5.70099 55.0616 5.10866 54.5289 4.68679 53.8429C4.26491 53.1568 4.05397 52.3535 4.05397 51.4331C4.05397 50.5126 4.26491 49.7093 4.68679 49.0233C5.10866 48.3372 5.70099 47.8045 6.46377 47.4252C7.22656 47.046 8.11718 46.8564 9.13565 46.8564C10.1499 46.8564 11.0362 47.046 11.7947 47.4252C12.5533 47.8045 13.1435 48.3372 13.5653 49.0233C13.9872 49.7093 14.1982 50.5126 14.1982 51.4331ZM12.5937 51.4267C12.5937 50.8301 12.4361 50.3358 12.1207 49.9437C11.8054 49.5517 11.3857 49.2619 10.8615 49.0744C10.3374 48.8826 9.75994 48.7868 9.12926 48.7868C8.50284 48.7868 7.92755 48.8826 7.40341 49.0744C6.875 49.2619 6.45099 49.5517 6.13139 49.9437C5.81179 50.3358 5.65198 50.8301 5.65199 51.4267C5.65199 52.0275 5.81179 52.5261 6.13139 52.9224C6.45099 53.3145 6.875 53.6064 7.40341 53.7981C7.92755 53.9856 8.50284 54.0794 9.12926 54.0794C9.75994 54.0794 10.3374 53.9856 10.8615 53.7981C11.3857 53.6064 11.8054 53.3145 12.1207 52.9224C12.4361 52.5261 12.5937 52.0275 12.5937 51.4267ZM14 44.723L4.18181 44.723L4.18181 40.6513C4.18181 39.5433 4.41832 38.6655 4.89133 38.0178C5.36008 37.37 5.99716 37.0462 6.80255 37.0462C7.37784 37.0462 7.8338 37.2294 8.17045 37.5959C8.5071 37.9624 8.73295 38.4482 8.84801 39.0533C8.89914 38.6143 9.03125 38.2116 9.24431 37.8452C9.45312 37.4787 9.73437 37.1847 10.0881 36.9631C10.4418 36.7372 10.8636 36.6243 11.3537 36.6243C11.8736 36.6243 12.3338 36.7585 12.7344 37.027C13.1307 37.2955 13.4418 37.6854 13.6676 38.1967C13.8892 38.7038 14 39.3153 14 40.0312L14 44.723ZM12.402 42.9268L12.402 40.0312C12.402 39.5582 12.2891 39.1875 12.0632 38.919C11.8374 38.6506 11.5305 38.5163 11.1428 38.5163C10.6868 38.5163 10.3288 38.6506 10.0689 38.919C9.80468 39.1875 9.67258 39.5582 9.67258 40.0312L9.67258 42.9268L12.402 42.9268ZM8.27272 42.9268L8.27272 40.6321C8.27272 40.2741 8.22159 39.9673 8.11931 39.7116C8.01704 39.4517 7.87216 39.2536 7.68466 39.1172C7.49289 38.9766 7.26704 38.9062 7.0071 38.9062C6.62784 38.9062 6.33167 39.0618 6.1186 39.3729C5.90554 39.6839 5.799 40.1101 5.799 40.6513L5.799 42.9268L8.27272 42.9268ZM14.2173 31.6705C14.2173 32.2926 14.1023 32.8551 13.8722 33.358C13.6378 33.8608 13.299 34.2592 12.8558 34.5533C12.4126 34.843 11.8693 34.9879 11.2258 34.9879C10.6719 34.9879 10.2159 34.8814 9.85795 34.6683C9.5 34.4553 9.21662 34.1676 9.00781 33.8054C8.799 33.4432 8.64133 33.0384 8.5348 32.5909C8.42826 32.1435 8.3473 31.6875 8.2919 31.223C8.22372 30.6349 8.16832 30.1577 8.12571 29.7912C8.07883 29.4247 8.00426 29.1584 7.90198 28.9922C7.79971 28.826 7.63352 28.7429 7.4034 28.7429L7.35866 28.7429C6.80042 28.7429 6.36789 28.9006 6.06108 29.2159C5.75426 29.527 5.60085 29.9915 5.60085 30.6094C5.60085 31.2528 5.7436 31.7599 6.02912 32.1307C6.31037 32.4972 6.62358 32.7507 6.96875 32.8913L6.55966 34.6875C5.96306 34.4744 5.48153 34.1634 5.11505 33.7543C4.74431 33.3409 4.47585 32.8658 4.30965 32.3288C4.1392 31.7919 4.05397 31.2273 4.05397 30.6349C4.05397 30.2429 4.10085 29.8274 4.1946 29.3885C4.28409 28.9453 4.45028 28.532 4.69318 28.1484C4.93607 27.7607 5.28338 27.4432 5.73508 27.196C6.18252 26.9489 6.7642 26.8253 7.48011 26.8253L14 26.8253L14 28.6918L12.6577 28.6918L12.6577 28.7685C12.9048 28.892 13.1477 29.0774 13.3864 29.3246C13.625 29.5717 13.8231 29.8892 13.9808 30.277C14.1385 30.6648 14.2173 31.1293 14.2173 31.6705ZM12.6832 31.255C12.6832 30.7266 12.5788 30.2749 12.37 29.8999C12.1612 29.5206 11.8885 29.233 11.5518 29.0369C11.2109 28.8366 10.8466 28.7365 10.4588 28.7365L9.19318 28.7365C9.26136 28.8047 9.32528 28.9368 9.38494 29.1328C9.44034 29.3246 9.48934 29.544 9.53196 29.7912C9.57031 30.0384 9.60653 30.2791 9.64062 30.5135C9.67045 30.7479 9.69602 30.9439 9.71733 31.1016C9.7642 31.4723 9.84304 31.8111 9.95383 32.1179C10.0646 32.4205 10.2244 32.6634 10.4332 32.8466C10.6378 33.0256 10.9105 33.1151 11.2514 33.1151C11.7244 33.1151 12.0824 32.9403 12.3253 32.5909C12.5639 32.2415 12.6832 31.7962 12.6832 31.255ZM8.26633 17.6255L9.92187 17.6255L9.92187 22.9437L8.26633 22.9437L8.26633 17.6255ZM4.18181 22.4068L14 22.4068L14 24.2797L4.18181 24.2797L4.18181 22.4068ZM4.18181 16.2896L14 16.2896L14 18.1561L4.18181 18.1561L4.18181 16.2896ZM14.1981 9.59712C14.1981 10.5176 13.9872 11.3208 13.5653 12.0069C13.1435 12.693 12.5533 13.2257 11.7947 13.6049C11.0362 13.9842 10.1499 14.1738 9.13565 14.1738C8.11718 14.1738 7.22656 13.9842 6.46377 13.6049C5.70099 13.2257 5.10866 12.693 4.68679 12.0069C4.26491 11.3208 4.05397 10.5176 4.05397 9.59712C4.05397 8.67667 4.26491 7.8734 4.68678 7.18732C5.10866 6.50124 5.70099 5.96857 6.46377 5.58931C7.22656 5.21005 8.11718 5.02042 9.13565 5.02042C10.1499 5.02042 11.0362 5.21005 11.7947 5.58931C12.5533 5.96857 13.1435 6.50124 13.5653 7.18732C13.9872 7.8734 14.1981 8.67667 14.1981 9.59712ZM12.5937 9.59073C12.5937 8.99414 12.4361 8.49982 12.1207 8.10778C11.8054 7.71573 11.3856 7.42596 10.8615 7.23846C10.3374 7.0467 9.75994 6.95082 9.12926 6.95082C8.50284 6.95082 7.92755 7.0467 7.4034 7.23846C6.87499 7.42596 6.45099 7.71573 6.13139 8.10778C5.81178 8.49982 5.65198 8.99414 5.65198 9.59073C5.65198 10.1916 5.81178 10.6902 6.13139 11.0865C6.45099 11.4785 6.87499 11.7704 7.4034 11.9622C7.92755 12.1497 8.50284 12.2434 9.12926 12.2434C9.75994 12.2434 10.3374 12.1497 10.8615 11.9622C11.3856 11.7704 11.8054 11.4785 12.1207 11.0865C12.4361 10.6902 12.5937 10.1916 12.5937 9.59073ZM0.909085 0.477272L10.2351 0.643465L10.2351 2.41406L0.909085 2.58026L0.909085 0.477272ZM14.1214 1.52557C14.1214 1.87926 13.9979 2.18182 13.7507 2.43324C13.4993 2.68466 13.1967 2.80824 12.843 2.80398C12.4936 2.80824 12.1953 2.68466 11.9481 2.43324C11.6967 2.18182 11.571 1.87926 11.571 1.52557C11.571 1.1804 11.6967 0.882102 11.9481 0.630681C12.1953 0.379261 12.4936 0.25142 12.843 0.247158C13.0774 0.25142 13.2926 0.313209 13.4886 0.432528C13.6804 0.547584 13.8338 0.700993 13.9489 0.892755C14.0639 1.08452 14.1214 1.29545 14.1214 1.52557Z" fill="#FEFEFE"/>
</svg>
