<svg width="22" height="67" viewBox="0 0 22 67" fill="none" xmlns="http://www.w3.org/2000/svg">
<path d="M9.16619 54.6889L9.16619 56.6832C8.74006 56.7599 8.36506 56.9027 8.04119 57.1115C7.71733 57.3203 7.44247 57.576 7.21662 57.8786C6.99077 58.1811 6.82031 58.5199 6.70526 58.8949C6.5902 59.2656 6.53267 59.6598 6.53267 60.0774C6.53267 60.8317 6.7223 61.5071 7.10156 62.1037C7.48082 62.696 8.03693 63.1648 8.76989 63.5099C9.50284 63.8509 10.3977 64.0213 11.4545 64.0213C12.5199 64.0213 13.419 63.8509 14.152 63.5099C14.8849 63.1648 15.4389 62.6939 15.8139 62.0973C16.1889 61.5007 16.3764 60.8295 16.3764 60.0838C16.3764 59.6705 16.321 59.2784 16.2102 58.9077C16.0952 58.5327 15.9268 58.1939 15.7053 57.8913C15.4837 57.5888 15.2131 57.3331 14.8935 57.1243C14.5696 56.9112 14.1989 56.7642 13.7812 56.6832L13.7876 54.6889C14.4311 54.7955 15.0234 55.0021 15.5646 55.3089C16.1016 55.6115 16.5661 56.0014 16.9581 56.4787C17.3459 56.9517 17.6463 57.4929 17.8594 58.1023C18.0724 58.7116 18.179 59.3764 18.179 60.0966C18.179 61.2301 17.9105 62.2401 17.3736 63.1264C16.8324 64.0128 16.0589 64.7116 15.0533 65.223C14.0476 65.7301 12.848 65.9837 11.4545 65.9837C10.0568 65.9837 8.85724 65.728 7.85582 65.2166C6.85014 64.7053 6.07883 64.0064 5.5419 63.12C5.00071 62.2337 4.73011 61.2259 4.73011 60.0966C4.73011 59.402 4.83026 58.7543 5.03054 58.1534C5.22656 57.5483 5.51633 57.005 5.89986 56.5234C6.27912 56.0419 6.74361 55.6435 7.29332 55.3281C7.83878 55.0128 8.46307 54.7997 9.16619 54.6889ZM18.1982 48.3432C18.1982 49.2637 17.9872 50.0669 17.5653 50.753C17.1435 51.4391 16.5533 51.9718 15.7947 52.351C15.0362 52.7303 14.1499 52.9199 13.1357 52.9199C12.1172 52.9199 11.2266 52.7303 10.4638 52.351C9.70099 51.9718 9.10866 51.4391 8.68679 50.753C8.26491 50.0669 8.05398 49.2637 8.05398 48.3432C8.05398 47.4228 8.26491 46.6195 8.68679 45.9334C9.10866 45.2473 9.70099 44.7147 10.4638 44.3354C11.2266 43.9561 12.1172 43.7665 13.1357 43.7665C14.1499 43.7665 15.0362 43.9561 15.7947 44.3354C16.5533 44.7147 17.1435 45.2473 17.5653 45.9334C17.9872 46.6195 18.1982 47.4228 18.1982 48.3432ZM16.5937 48.3368C16.5937 47.7402 16.4361 47.2459 16.1207 46.8539C15.8054 46.4618 15.3857 46.1721 14.8615 45.9846C14.3374 45.7928 13.7599 45.6969 13.1293 45.6969C12.5028 45.6969 11.9276 45.7928 11.4034 45.9846C10.875 46.1721 10.451 46.4618 10.1314 46.8539C9.81179 47.2459 9.65199 47.7402 9.65199 48.3368C9.65199 48.9377 9.81179 49.4363 10.1314 49.8326C10.451 50.2246 10.875 50.5165 11.4034 50.7083C11.9276 50.8958 12.5028 50.9895 13.1293 50.9895C13.7599 50.9895 14.3374 50.8958 14.8615 50.7083C15.3857 50.5165 15.8054 50.2246 16.1207 49.8326C16.4361 49.4363 16.5937 48.9377 16.5937 48.3368ZM21.6818 41.6332L8.18182 41.6332L8.18182 39.7667L9.77344 39.7667L9.77344 39.6069C9.56889 39.4961 9.33238 39.3363 9.06392 39.1275C8.79545 38.9187 8.56108 38.6289 8.36079 38.2582C8.15625 37.8874 8.05398 37.3974 8.05398 36.788C8.05398 35.9954 8.25426 35.288 8.65483 34.6658C9.0554 34.0437 9.63281 33.5558 10.3871 33.2021C11.1413 32.8441 12.049 32.6651 13.1101 32.6651C14.1712 32.6651 15.081 32.842 15.8395 33.1957C16.5937 33.5494 17.1754 34.0352 17.5845 34.6531C17.9893 35.271 18.1918 35.9762 18.1918 36.7688C18.1918 37.3654 18.0916 37.8533 17.8913 38.2326C17.691 38.6076 17.4567 38.9016 17.1882 39.1147C16.9197 39.3278 16.6811 39.4918 16.4723 39.6069L16.4723 39.7219L21.6818 39.7219L21.6818 41.6332ZM13.0909 39.7603C13.7812 39.7603 14.3864 39.6602 14.9062 39.4599C15.4261 39.2596 15.8331 38.9698 16.1271 38.5906C16.4169 38.2113 16.5618 37.7468 16.5618 37.1971C16.5618 36.6261 16.4105 36.1488 16.108 35.7653C15.8011 35.3817 15.3857 35.092 14.8615 34.896C14.3374 34.6957 13.7472 34.5955 13.0909 34.5955C12.4432 34.5955 11.8615 34.6935 11.3459 34.8896C10.8303 35.0813 10.4233 35.3711 10.125 35.7589C9.8267 36.1424 9.67756 36.6218 9.67756 37.1971C9.67756 37.7511 9.82031 38.2198 10.1058 38.6033C10.3913 38.9826 10.7898 39.2702 11.3011 39.4663C11.8125 39.6623 12.4091 39.7603 13.0909 39.7603ZM18 30.5238L8.18182 30.5238L8.18182 28.6126L18 28.6126L18 30.5238ZM6.6669 29.5586C6.6669 29.891 6.55611 30.1765 6.33451 30.4151C6.10866 30.6495 5.8402 30.7667 5.52912 30.7667C5.21378 30.7667 4.94531 30.6495 4.72372 30.4151C4.49787 30.1765 4.38494 29.891 4.38494 29.5586C4.38494 29.2262 4.49787 28.9428 4.72372 28.7085C4.94531 28.4698 5.21378 28.3505 5.52912 28.3505C5.8402 28.3505 6.10866 28.4698 6.33451 28.7085C6.55611 28.9428 6.6669 29.2262 6.6669 29.5586ZM18.1982 21.8098C18.1982 22.7772 17.9915 23.6103 17.5781 24.3091C17.1605 25.0037 16.5746 25.5407 15.8203 25.9199C15.0618 26.2949 14.1733 26.4824 13.1548 26.4824C12.1491 26.4824 11.2628 26.2949 10.4957 25.9199C9.72869 25.5407 9.12997 25.0123 8.69957 24.3347C8.26917 23.6529 8.05398 22.856 8.05398 21.9441C8.05398 21.3901 8.14559 20.8532 8.32883 20.3333C8.51207 19.8134 8.79971 19.3468 9.19176 18.9334C9.5838 18.5201 10.093 18.1941 10.7195 17.9554C11.3416 17.7168 12.098 17.5975 12.9886 17.5975L13.6662 17.5975L13.6662 25.4022L12.2344 25.4022L12.2344 19.4703C11.7315 19.4703 11.2862 19.5726 10.8984 19.7772C10.5064 19.9817 10.1974 20.2694 9.97159 20.6401C9.74574 21.0066 9.63281 21.437 9.63281 21.9313C9.63281 22.4682 9.76491 22.937 10.0291 23.3375C10.2891 23.7338 10.63 24.0407 11.0518 24.258C11.4695 24.4711 11.9233 24.5776 12.4134 24.5776L13.532 24.5776C14.1882 24.5776 14.7464 24.4625 15.2067 24.2324C15.6669 23.998 16.0185 23.6721 16.2614 23.2544C16.5 22.8368 16.6193 22.3489 16.6193 21.7907C16.6193 21.4284 16.5682 21.0982 16.4659 20.7999C16.3594 20.5016 16.2017 20.2438 15.9929 20.0265C15.7841 19.8091 15.5263 19.6429 15.2195 19.5279L15.5455 17.7189C16.0781 17.8638 16.5447 18.1238 16.9453 18.4988C17.3416 18.8695 17.6506 19.3361 17.8722 19.8986C18.0895 20.4569 18.1982 21.0939 18.1982 21.8098ZM18.1918 11.8015C18.1918 12.5941 17.9893 13.3015 17.5845 13.9236C17.1754 14.5415 16.5937 15.0273 15.8395 15.381C15.081 15.7305 14.1712 15.9052 13.1101 15.9052C12.049 15.9052 11.1413 15.7283 10.3871 15.3746C9.63281 15.0167 9.0554 14.5266 8.65483 13.9045C8.25426 13.2823 8.05397 12.5771 8.05397 11.7887C8.05397 11.1793 8.15625 10.6893 8.36079 10.3185C8.56108 9.94354 8.79545 9.65376 9.06392 9.44922C9.33238 9.24041 9.56889 9.07848 9.77343 8.96342L9.77343 8.84837L4.90909 8.84837L4.90909 6.93714L18 6.93714L18 8.80362L16.4723 8.80362L16.4723 8.96342C16.6811 9.07848 16.9197 9.24467 17.1882 9.462C17.4567 9.67507 17.691 9.9691 17.8913 10.3441C18.0916 10.7191 18.1918 11.2049 18.1918 11.8015ZM16.5618 11.3796C16.5618 10.8299 16.4169 10.3654 16.1271 9.98615C15.8331 9.60263 15.4261 9.31285 14.9062 9.11683C14.3864 8.91655 13.7812 8.81641 13.0909 8.81641C12.4091 8.81641 11.8125 8.91442 11.3011 9.11044C10.7898 9.30646 10.3913 9.5941 10.1058 9.97337C9.82031 10.3526 9.67755 10.8214 9.67755 11.3796C9.67755 11.9549 9.8267 12.4343 10.125 12.8178C10.4233 13.2013 10.8303 13.4911 11.3459 13.6871C11.8615 13.8789 12.4432 13.9748 13.0909 13.9748C13.7472 13.9748 14.3374 13.8768 14.8615 13.6808C15.3857 13.4847 15.8011 13.195 16.108 12.8114C16.4105 12.4236 16.5618 11.9464 16.5618 11.3796ZM4.90909 1.79954L14.2351 1.96573L14.2351 3.73633L4.90909 3.90252L4.90909 1.79954ZM18.1214 2.84783C18.1214 3.20153 17.9979 3.50408 17.7507 3.7555C17.4993 4.00692 17.1967 4.1305 16.843 4.12624C16.4936 4.1305 16.1953 4.00692 15.9482 3.7555C15.6967 3.50408 15.571 3.20153 15.571 2.84783C15.571 2.50266 15.6967 2.20437 15.9482 1.95295C16.1953 1.70153 16.4936 1.57369 16.843 1.56942C17.0774 1.57369 17.2926 1.63547 17.4886 1.75479C17.6804 1.86985 17.8338 2.02326 17.9489 2.21502C18.0639 2.40678 18.1214 2.61772 18.1214 2.84783Z" fill="#FEFEFE"/>
</svg>
