<svg width="18" height="122" viewBox="0 0 18 122" fill="none" xmlns="http://www.w3.org/2000/svg"><path d="M5.16619 110.689v1.994c-.42613.077-.80113.22-1.125.429-.32386.208-.59872.464-.82457.767-.22585.302-.39631.641-.51136 1.016-.11506.371-.17259.765-.17259 1.182 0 .755.18963 1.43.56889 2.027.37926.592.93537 1.061 1.66833 1.406.73295.341 1.62784.511 2.68466.511 1.06534 0 1.96448-.17 2.69745-.511.7329-.345 1.2869-.816 1.6619-1.413.375-.596.5625-1.267.5625-2.013 0-.414-.0554-.806-.1662-1.176-.115-.375-.2834-.714-.5049-1.017-.2216-.302-.4922-.558-.8118-.767-.3239-.213-.6946-.36-1.11225-.441l.00639-1.994c.64346.106 1.23576.313 1.77696.62.537.303 1.0015.692 1.3935 1.17.3878.473.6882 1.014.9013 1.623.213.61.3196 1.274.3196 1.995 0 1.133-.2685 2.143-.8054 3.029-.5412.887-1.3147 1.586-2.3203 2.097-1.0057.507-2.20529.761-3.59875.761-1.39773 0-2.59731-.256-3.59873-.767-1.00568-.512-1.77699-1.211-2.31392-2.097-.54119-.886-.811787-1.894-.811787-3.023 0-.695.100142-1.343.300427-1.944.19602-.605.48579-1.148.86932-1.63.37926-.481.84375-.88 1.39346-1.195.54546-.315 1.16975-.528 1.87287-.639zM14 108.479H4.18182v-1.911h4.11647v-.921l-4.11647-3.241v-2.365l4.77486 3.804L14 99.9966v2.3714l-3.9247 2.96v1.24H14v1.911zm.1982-13.6983c0 .9205-.211 1.7237-.6329 2.4098-.4218.6861-1.012 1.2188-1.7706 1.598-.7585.3793-1.6448.5689-2.65905.5689-1.01846 0-1.90909-.1896-2.67187-.5689-.76279-.3792-1.35512-.9119-1.77699-1.598-.42188-.6861-.63281-1.4893-.63281-2.4098 0-.9204.21093-1.7237.63281-2.4098.42187-.6861 1.0142-1.2187 1.77699-1.598.76278-.3793 1.65341-.5689 2.67187-.5689 1.01425 0 1.90055.1896 2.65905.5689.7586.3793 1.3488.9119 1.7706 1.598.4219.6861.6329 1.4894.6329 2.4098zm-1.6045-.0064c0-.5966-.1576-1.0909-.473-1.4829-.3153-.3921-.735-.6818-1.2592-.8693-.5241-.1918-1.10156-.2877-1.73224-.2877-.62642 0-1.2017.0959-1.72585.2877-.52841.1875-.95242.4772-1.27202.8693-.3196.392-.4794.8863-.4794 1.4829 0 .6009.1598 1.0995.4794 1.4958.3196.392.74361.6839 1.27202.8757.52415.1875 1.09943.2812 1.72585.2812.63068 0 1.20814-.0937 1.73224-.2812.5242-.1918.9439-.4837 1.2592-.8757.3154-.3963.473-.8949.473-1.4958zM14 88.0707H4.18182v-8.0093H14v1.8729H5.83096v4.2763H14v1.8601zm-2.6783-12.4374l-7.13988-4.3274v-2.0582H14v1.8729H6.85369L14 75.4288v2.0774H4.18182v-1.8729h7.13988zm6.3601-8.9552H4.18182v-1.8665h1.59161v-.1598c-.20454-.1108-.44105-.2706-.70951-.4794-.26847-.2088-.50284-.4986-.70313-.8693-.20454-.3707-.30682-.8608-.30682-1.4702 0-.7926.20029-1.5.60086-2.1221.40056-.6222.97798-1.1101 1.73224-1.4638.75426-.358 1.66193-.537 2.72301-.537 1.06112 0 1.97092.1769 2.72942.5306.7542.3537 1.3359.8395 1.745 1.4574.4048.6179.6073 1.3231.6073 2.1157 0 .5966-.1002 1.0846-.3005 1.4638-.2003.375-.4346.6691-.7031.8821-.2685.2131-.5071.3772-.7159.4922v.1151h5.2095v1.9112zm-8.59089-1.8729c.69034 0 1.29549-.1001 1.81529-.3004.5199-.2003.9269-.4901 1.2209-.8693.2898-.3793.4347-.8438.4347-1.3935 0-.571-.1513-1.0483-.4538-1.4318-.3069-.3835-.7223-.6733-1.2465-.8693-.5241-.2003-1.11434-.3005-1.77059-.3005-.64773 0-1.22941.0981-1.74503.2941-.51563.1917-.92259.4815-1.22088.8693-.2983.3835-.44745.8629-.44745 1.4382 0 .554.14276 1.0227.42827 1.4063.28551.3792.68395.6669 1.19531.8629.51137.196 1.10796.294 1.78978.294zm5.10729-13.3721c0 .9204-.211 1.7237-.6329 2.4098-.4218.686-1.012 1.2187-1.7706 1.598-.7585.3792-1.6448.5689-2.65905.5689-1.01847 0-1.90909-.1897-2.67187-.5689-.76279-.3793-1.35512-.912-1.77699-1.598-.42188-.6861-.63282-1.4894-.63282-2.4098 0-.9205.21094-1.7238.63282-2.4098.42187-.6861 1.0142-1.2188 1.77698-1.5981.76279-.3792 1.65341-.5688 2.67188-.5688 1.01425 0 1.90055.1896 2.65905.5688.7586.3793 1.3488.912 1.7706 1.5981.4219.686.6329 1.4893.6329 2.4098zm-1.6045-.0064c0-.5966-.1576-1.0909-.473-1.483-.3153-.392-.735-.6818-1.2592-.8693-.5241-.1918-1.10156-.2876-1.73224-.2876-.62642 0-1.20171.0958-1.72585.2876-.52841.1875-.95242.4773-1.27202.8693-.3196.3921-.47941.8864-.4794 1.483 0 .6008.1598 1.0994.4794 1.4957.3196.3921.74361.684 1.27202.8757.52414.1875 1.09943.2813 1.72585.2813.63068 0 1.20814-.0938 1.73224-.2813.5242-.1917.9439-.4836 1.2592-.8757.3154-.3963.473-.8949.473-1.4957zM14 44.723H4.18181v-4.0717c0-1.108.23651-1.9858.70952-2.6335.46875-.6478 1.10583-.9716 1.91122-.9716.57529 0 1.03125.1832 1.3679.5497.33665.3665.5625.8523.67756 1.4574.05113-.439.18324-.8417.3963-1.2081.20881-.3665.49006-.6605.84379-.8821.3537-.2259.7755-.3388 1.2656-.3388.5199 0 .9801.1342 1.3807.4027.3963.2685.7074.6584.9332 1.1697.2216.5071.3324 1.1186.3324 1.8345v4.6918zm-1.598-1.7962v-2.8956c0-.473-.1129-.8437-.3388-1.1122-.2258-.2684-.5327-.4027-.9204-.4027-.456 0-.814.1343-1.0739.4027-.26422.2685-.39632.6392-.39632 1.1122v2.8956H12.402zm-4.12928 0v-2.2947c0-.358-.05113-.6648-.15341-.9205-.10227-.2599-.24715-.458-.43465-.5944-.19177-.1406-.41762-.211-.67756-.211-.37926 0-.67543.1556-.8885.4667-.21306.311-.3196.7372-.3196 1.2784v2.2755h2.47372zm5.94458-11.2563c0 .6221-.115 1.1846-.3451 1.6875-.2344.5028-.5732.9012-1.0164 1.1953-.4432.2897-.9865.4346-1.63.4346-.5539 0-1.0099-.1065-1.36785-.3196-.35795-.213-.64133-.5007-.85014-.8629-.20881-.3622-.36648-.767-.47301-1.2145-.10654-.4474-.1875-.9034-.2429-1.3679-.06818-.5881-.12358-1.0653-.16619-1.4318-.04688-.3665-.12145-.6328-.22373-.799-.10227-.1662-.26846-.2493-.49858-.2493h-.04474c-.55824 0-.99077.1577-1.29758.473-.30682.3111-.46023.7756-.46023 1.3935 0 .6434.14275 1.1505.42827 1.5213.28125.3665.59446.62.93963.7606l-.40909 1.7962c-.5966-.2131-1.07813-.5241-1.44461-.9332-.37074-.4134-.6392-.8885-.8054-1.4255-.17045-.5369-.25568-1.1015-.25568-1.6939 0-.392.04688-.8075.14063-1.2464.08949-.4432.25568-.8565.49858-1.2401.24289-.3877.5902-.7052 1.0419-.9524.44744-.2471 1.02912-.3707 1.74503-.3707H14v1.8665h-1.3423v.0767c.2471.1235.49.3089.7287.5561.2386.2471.4367.5646.5944.9524.1577.3878.2365.8523.2365 1.3935zm-1.5341-.4155c0-.5284-.1044-.9801-.3132-1.3551-.2088-.3793-.4815-.6669-.8182-.863-.3409-.2003-.7052-.3004-1.093-.3004H9.19318c.06818.0682.1321.2003.19176.3963.0554.1918.1044.4112.14702.6584.03835.2472.07457.4879.10866.7223.02983.2344.0554.4304.07671.5881.04687.3707.12571.7095.2365 1.0163.11077.3026.27057.5455.47937.7287.2046.179.4773.2685.8182.2685.473 0 .831-.1748 1.0739-.5242.2386-.3494.3579-.7947.3579-1.3359zM8.26633 17.6255h1.65554v5.3182H8.26633v-5.3182zm-4.08452 4.7813H14v1.8729H4.18181v-1.8729zm0-6.1172H14v1.8665H4.18181v-1.8665zM14.1981 9.59712c0 .92048-.2109 1.72368-.6328 2.40978-.4218.6861-1.012 1.2188-1.7706 1.598-.7585.3793-1.6448.5689-2.65905.5689-1.01847 0-1.90909-.1896-2.67188-.5689-.76278-.3792-1.35511-.9119-1.77698-1.598-.42188-.6861-.63282-1.4893-.63282-2.40978 0-.92045.21094-1.72372.63281-2.4098.42188-.68608 1.01421-1.21875 1.77699-1.59801.76279-.37926 1.65341-.56889 2.67188-.56889 1.01425 0 1.90055.18963 2.65905.56889.7586.37926 1.3488.91193 1.7706 1.59801.4219.68608.6328 1.48935.6328 2.4098zm-1.6044-.00639c0-.59659-.1576-1.09091-.473-1.48295-.3153-.39205-.7351-.68182-1.2592-.86932-.5241-.19176-1.10156-.28764-1.73224-.28764-.62642 0-1.20171.09588-1.72586.28764-.52841.1875-.95241.47727-1.27201.86932-.31961.39204-.47941.88636-.47941 1.48295 0 .60087.1598 1.09947.47941 1.49577.3196.392.7436.6839 1.27201.8757.52415.1875 1.09944.2812 1.72586.2812.63068 0 1.20814-.0937 1.73224-.2812.5241-.1918.9439-.4837 1.2592-.8757.3154-.3963.473-.8949.473-1.49577zM.909085.477272L10.2351.643465V2.41406l-9.326015.1662V.477272zM14.1214 1.52557c0 .35369-.1235.65625-.3707.90767-.2514.25142-.554.375-.9077.37074-.3494.00426-.6477-.11932-.8949-.37074-.2514-.25142-.3771-.55398-.3771-.90767 0-.34517.1257-.643468.3771-.894889.2472-.25142.5455-.379261.8949-.383523.2344.004262.4496.066051.6456.18537.1918.115056.3452.268465.4603.460227.115.191765.1725.402695.1725.632815z" fill="#111"/></svg>