<svg width="83" height="22" viewBox="0 0 83 22" fill="none" xmlns="http://www.w3.org/2000/svg">
<path d="M4.04616 18L0.351562 4.90909H2.90199L5.26065 14.5291H5.3821L7.90057 4.90909H10.2209L12.7457 14.5355H12.8608L15.2195 4.90909H17.7699L14.0753 18H11.7358L9.11506 8.81463H9.01278L6.38565 18H4.04616ZM23.6394 18.1982C22.6721 18.1982 21.839 17.9915 21.1401 17.5781C20.4455 17.1605 19.9086 16.5746 19.5293 15.8203C19.1543 15.0618 18.9668 14.1733 18.9668 13.1548C18.9668 12.1491 19.1543 11.2628 19.5293 10.4957C19.9086 9.72869 20.437 9.12997 21.1145 8.69957C21.7963 8.26918 22.5932 8.05398 23.5051 8.05398C24.0591 8.05398 24.5961 8.1456 25.1159 8.32884C25.6358 8.51207 26.1025 8.79972 26.5158 9.19176C26.9292 9.58381 27.2551 10.093 27.4938 10.7195C27.7324 11.3416 27.8517 12.098 27.8517 12.9886V13.6662H20.0471V12.2344H25.9789C25.9789 11.7315 25.8766 11.2862 25.6721 10.8984C25.4675 10.5064 25.1799 10.1974 24.8091 9.97159C24.4426 9.74574 24.0123 9.63281 23.5179 9.63281C22.981 9.63281 22.5123 9.76491 22.1117 10.0291C21.7154 10.2891 21.4086 10.63 21.1912 11.0518C20.9782 11.4695 20.8716 11.9233 20.8716 12.4134V13.532C20.8716 14.1882 20.9867 14.7464 21.2168 15.2067C21.4512 15.6669 21.7772 16.0185 22.1948 16.2614C22.6124 16.5 23.1003 16.6193 23.6586 16.6193C24.0208 16.6193 24.351 16.5682 24.6493 16.4659C24.9476 16.3594 25.2054 16.2017 25.4228 15.9929C25.6401 15.7841 25.8063 15.5263 25.9213 15.2195L27.7303 15.5455C27.5854 16.0781 27.3255 16.5447 26.9505 16.9453C26.5797 17.3416 26.1131 17.6506 25.5506 17.8722C24.9924 18.0895 24.3553 18.1982 23.6394 18.1982ZM30.1257 18V4.90909H32.0369V9.77344H32.152C32.2628 9.56889 32.4226 9.33239 32.6314 9.06392C32.8402 8.79545 33.13 8.56108 33.5007 8.3608C33.8714 8.15625 34.3615 8.05398 34.9709 8.05398C35.7635 8.05398 36.4709 8.25426 37.093 8.65483C37.7152 9.0554 38.2031 9.63281 38.5568 10.3871C38.9148 11.1413 39.0938 12.049 39.0938 13.1101C39.0938 14.1712 38.9169 15.081 38.5632 15.8395C38.2095 16.5937 37.7237 17.1754 37.1058 17.5845C36.4879 17.9893 35.7827 18.1918 34.9901 18.1918C34.3935 18.1918 33.9055 18.0916 33.5263 17.8913C33.1513 17.6911 32.8572 17.4567 32.6442 17.1882C32.4311 16.9197 32.267 16.6811 32.152 16.4723H31.9922V18H30.1257ZM31.9986 13.0909C31.9986 13.7812 32.0987 14.3864 32.299 14.9062C32.4993 15.4261 32.7891 15.8331 33.1683 16.1271C33.5476 16.4169 34.0121 16.5618 34.5618 16.5618C35.1328 16.5618 35.6101 16.4105 35.9936 16.108C36.3771 15.8011 36.6669 15.3857 36.8629 14.8615C37.0632 14.3374 37.1634 13.7472 37.1634 13.0909C37.1634 12.4432 37.0653 11.8615 36.8693 11.3459C36.6776 10.8303 36.3878 10.4233 36 10.125C35.6165 9.8267 35.1371 9.67756 34.5618 9.67756C34.0078 9.67756 33.5391 9.82031 33.1555 10.1058C32.7763 10.3913 32.4886 10.7898 32.2926 11.3011C32.0966 11.8125 31.9986 12.4091 31.9986 13.0909ZM52.2662 9.16619H50.2718C50.1951 8.74006 50.0524 8.36506 49.8436 8.04119C49.6348 7.71733 49.3791 7.44247 49.0765 7.21662C48.774 6.99077 48.4352 6.82031 48.0602 6.70526C47.6895 6.5902 47.2953 6.53267 46.8777 6.53267C46.1234 6.53267 45.448 6.7223 44.8514 7.10156C44.2591 7.48082 43.7903 8.03693 43.4451 8.76989C43.1042 9.50284 42.9338 10.3977 42.9338 11.4545C42.9338 12.5199 43.1042 13.419 43.4451 14.152C43.7903 14.8849 44.2612 15.4389 44.8578 15.8139C45.4544 16.1889 46.1255 16.3764 46.8713 16.3764C47.2846 16.3764 47.6767 16.321 48.0474 16.2102C48.4224 16.0952 48.7612 15.9268 49.0637 15.7053C49.3663 15.4837 49.622 15.2131 49.8308 14.8935C50.0439 14.5696 50.1909 14.1989 50.2718 13.7812L52.2662 13.7876C52.1596 14.4311 51.9529 15.0234 51.6461 15.5646C51.3436 16.1016 50.9537 16.5661 50.4764 16.9581C50.0034 17.3459 49.4622 17.6463 48.8528 17.8594C48.2434 18.0724 47.5787 18.179 46.8585 18.179C45.725 18.179 44.715 17.9105 43.8287 17.3736C42.9423 16.8324 42.2434 16.0589 41.7321 15.0533C41.225 14.0476 40.9714 12.848 40.9714 11.4545C40.9714 10.0568 41.2271 8.85724 41.7385 7.85582C42.2498 6.85014 42.9487 6.07883 43.835 5.5419C44.7214 5.00071 45.7292 4.73011 46.8585 4.73011C47.5531 4.73011 48.2008 4.83026 48.8017 5.03054C49.4068 5.22656 49.9501 5.51633 50.4316 5.89986C50.9132 6.27912 51.3116 6.74361 51.627 7.29332C51.9423 7.83878 52.1554 8.46307 52.2662 9.16619ZM56.3874 4.90909V18H54.4762V4.90909H56.3874ZM58.9586 18V8.18182H60.8699V18H58.9586ZM59.9238 6.6669C59.5914 6.6669 59.3059 6.55611 59.0673 6.33452C58.8329 6.10866 58.7157 5.8402 58.7157 5.52912C58.7157 5.21378 58.8329 4.94531 59.0673 4.72372C59.3059 4.49787 59.5914 4.38494 59.9238 4.38494C60.2562 4.38494 60.5396 4.49787 60.774 4.72372C61.0126 4.94531 61.1319 5.21378 61.1319 5.52912C61.1319 5.8402 61.0126 6.10866 60.774 6.33452C60.5396 6.55611 60.2562 6.6669 59.9238 6.6669ZM67.5767 18.1982C66.6264 18.1982 65.8082 17.983 65.1222 17.5526C64.4403 17.1179 63.9162 16.5192 63.5497 15.7564C63.1832 14.9936 63 14.12 63 13.1357C63 12.1385 63.1875 11.2585 63.5625 10.4957C63.9375 9.72869 64.4659 9.12997 65.1477 8.69957C65.8295 8.26918 66.6328 8.05398 67.5575 8.05398C68.3033 8.05398 68.968 8.19247 69.5518 8.46946C70.1357 8.74219 70.6065 9.12571 70.9645 9.62003C71.3267 10.1143 71.5419 10.6918 71.6101 11.3523H69.75C69.6477 10.892 69.4134 10.4957 69.0469 10.1634C68.6847 9.83097 68.1989 9.66477 67.5895 9.66477C67.0568 9.66477 66.5902 9.8054 66.1896 10.0866C65.7933 10.3636 65.4844 10.7599 65.2628 11.2756C65.0412 11.7869 64.9304 12.392 64.9304 13.0909C64.9304 13.8068 65.0391 14.4247 65.2564 14.9446C65.4737 15.4645 65.7805 15.8672 66.1768 16.1527C66.5774 16.4382 67.0483 16.581 67.5895 16.581C67.9517 16.581 68.2798 16.5149 68.5739 16.3828C68.8722 16.2464 69.1214 16.0526 69.3217 15.8011C69.5263 15.5497 69.669 15.2472 69.75 14.8935H71.6101C71.5419 15.5284 71.3352 16.0952 70.9901 16.5938C70.6449 17.0923 70.1825 17.4844 69.603 17.7699C69.0277 18.0554 68.3523 18.1982 67.5767 18.1982ZM75.4118 14.6697L75.399 12.3366H75.7314L79.6433 8.18182H81.9316L77.47 12.9119H77.1696L75.4118 14.6697ZM73.6539 18V4.90909H75.5652V18H73.6539ZM79.8542 18L76.3386 13.3338L77.6554 11.9979L82.2001 18H79.8542Z" fill="#FEFEFE"/>
</svg>
