<svg width="83" height="22" viewBox="0 0 83 22" fill="none" xmlns="http://www.w3.org/2000/svg"><path d="M4.04616 18L.351562 4.90909H2.90199l2.35866 9.62001h.12145l2.51847-9.62001h2.32033l2.5248 9.62641h.1151l2.3587-9.62641h2.5504L14.0753 18h-2.3395L9.11506 8.81463h-.10228L6.38565 18H4.04616zm19.59324.1982c-.9673 0-1.8004-.2067-2.4993-.6201-.6946-.4176-1.2315-1.0035-1.6108-1.7578-.375-.7585-.5625-1.647-.5625-2.6655 0-1.0057.1875-1.892.5625-2.6591.3793-.76701.9077-1.36573 1.5852-1.79613.6818-.43039 1.4787-.64559 2.3906-.64559.554 0 1.091.09162 1.6108.27486.5199.18323.9866.47088 1.3999.86292.4134.39205.7393.90124.978 1.52774.2386.6221.3579 1.3785.3579 2.2691v.6776h-7.8046v-1.4318h5.9318c0-.5029-.1023-.9482-.3068-1.336-.2046-.392-.4922-.701-.863-.92681-.3665-.22585-.7968-.33878-1.2912-.33878-.5369 0-1.0056.1321-1.4062.39629-.3963.26-.7031.6009-.9205 1.0227-.213.4177-.3196.8715-.3196 1.3616v1.1186c0 .6562.1151 1.2144.3452 1.6747.2344.4602.5604.8118.978 1.0547.4176.2386.9055.3579 1.4638.3579.3622 0 .6924-.0511.9907-.1534.2983-.1065.5561-.2642.7735-.473.2173-.2088.3835-.4666.4985-.7734l1.809.326c-.1449.5326-.4048.9992-.7798 1.3998-.3708.3963-.8374.7053-1.3999.9269-.5582.2173-1.1953.326-1.9112.326zM30.1257 18V4.90909h1.9112v4.86435h.1151c.1108-.20455.2706-.44105.4794-.70952.2088-.26847.4986-.50284.8693-.70312.3707-.20455.8608-.30682 1.4702-.30682.7926 0 1.5.20028 2.1221.60085.6222.40057 1.1101.97798 1.4638 1.73227.358.7542.537 1.6619.537 2.723s-.1769 1.9709-.5306 2.7294c-.3537.7542-.8395 1.3359-1.4574 1.745-.6179.4048-1.3231.6073-2.1157.6073-.5966 0-1.0846-.1002-1.4638-.3005-.375-.2002-.6691-.4346-.8821-.7031-.2131-.2685-.3772-.5071-.4922-.7159h-.1598V18h-1.8665zm1.8729-4.9091c0 .6903.1001 1.2955.3004 1.8153.2003.5199.4901.9269.8693 1.2209.3793.2898.8438.4347 1.3935.4347.571 0 1.0483-.1513 1.4318-.4538.3835-.3069.6733-.7223.8693-1.2465.2003-.5241.3005-1.1143.3005-1.7706 0-.6477-.0981-1.2294-.2941-1.745-.1917-.5156-.4815-.9226-.8693-1.2209-.3835-.2983-.8629-.44744-1.4382-.44744-.554 0-1.0227.14275-1.4063.42824-.3792.2855-.6669.684-.8629 1.1953-.196.5114-.294 1.108-.294 1.7898zm20.2676-3.92471h-1.9944c-.0767-.42613-.2194-.80113-.4282-1.125-.2088-.32386-.4645-.59872-.7671-.82457-.3025-.22585-.6413-.39631-1.0163-.51136-.3707-.11506-.7649-.17259-1.1825-.17259-.7543 0-1.4297.18963-2.0263.56889-.5923.37926-1.0611.93537-1.4063 1.66833-.3409.73295-.5113 1.62781-.5113 2.68461 0 1.0654.1704 1.9645.5113 2.6975.3452.7329.8161 1.2869 1.4127 1.6619s1.2677.5625 2.0135.5625c.4133 0 .8054-.0554 1.1761-.1662.375-.115.7138-.2834 1.0163-.5049.3026-.2216.5583-.4922.7671-.8118.2131-.3239.3601-.6946.441-1.1123l1.9944.0064c-.1066.6435-.3133 1.2358-.6201 1.777-.3025.537-.6924 1.0015-1.1697 1.3935-.473.3878-1.0142.6882-1.6236.9013-.6094.213-1.2741.3196-1.9943.3196-1.1335 0-2.1435-.2685-3.0298-.8054-.8864-.5412-1.5853-1.3147-2.0966-2.3203-.5071-1.0057-.7607-2.2053-.7607-3.5988 0-1.3977.2557-2.59726.7671-3.59868.5113-1.00568 1.2102-1.77699 2.0965-2.31392.8864-.54119 1.8942-.81179 3.0235-.81179.6946 0 1.3423.10015 1.9432.30043.6051.19602 1.1484.48579 1.6299.86932.4816.37926.88.84375 1.1954 1.39346.3153.54546.5284 1.16975.6392 1.87287zm4.1212-4.2571V18h-1.9112V4.90909h1.9112zM58.9586 18V8.18182h1.9113V18h-1.9113zm.9652-11.3331c-.3324 0-.6179-.11079-.8565-.33238-.2344-.22586-.3516-.49432-.3516-.8054 0-.31534.1172-.58381.3516-.8054.2386-.22585.5241-.33878.8565-.33878.3324 0 .6158.11293.8502.33878.2386.22159.3579.49006.3579.8054 0 .31108-.1193.57954-.3579.8054-.2344.22159-.5178.33238-.8502.33238zm7.6529 11.5313c-.9503 0-1.7685-.2152-2.4545-.6456-.6819-.4347-1.206-1.0334-1.5725-1.7962C63.1832 14.9936 63 14.12 63 13.1357c0-.9972.1875-1.8772.5625-2.64.375-.76701.9034-1.36573 1.5852-1.79613.6818-.43039 1.4851-.64559 2.4098-.64559.7458 0 1.4105.13849 1.9943.41548.5839.27273 1.0547.65625 1.4127 1.15057.3622.49427.5774 1.07177.6456 1.73227H69.75c-.1023-.4603-.3366-.8566-.7031-1.1889-.3622-.33243-.848-.49863-1.4574-.49863-.5327 0-.9993.14063-1.3999.42183-.3963.277-.7052.6733-.9268 1.189-.2216.5113-.3324 1.1164-.3324 1.8153 0 .7159.1087 1.3338.326 1.8537.2173.5199.5241.9226.9204 1.2081.4006.2855.8715.4283 1.4127.4283.3622 0 .6903-.0661.9844-.1982.2983-.1364.5475-.3302.7478-.5817.2046-.2514.3473-.5539.4283-.9076h1.8601c-.0682.6349-.2749 1.2017-.62 1.7003-.3452.4985-.8076.8906-1.3871 1.1761-.5753.2855-1.2507.4283-2.0263.4283zm7.8351-3.5285l-.0128-2.3331h.3324l3.9119-4.15478h2.2883L77.47 12.9119h-.3004l-1.7578 1.7578zM73.6539 18V4.90909h1.9113V18h-1.9113zm6.2003 0l-3.5156-4.6662 1.3168-1.3359L82.2001 18h-2.3459z" fill="#111"/></svg>