<svg width="22" height="63" viewBox="0 0 22 63" fill="none" xmlns="http://www.w3.org/2000/svg"><path d="M8.34801 54.4219c-.60511.0682-1.07386.3494-1.40625.8437-.33665.4943-.50497 1.1165-.50497 1.8665 0 .5369.08523 1.0014.25568 1.3935.16619.392.39631.6967.69034.914.28977.2131.62003.3196.99077.3196.31108 0 .57954-.0724.8054-.2173.22585-.1491.41548-.343.56889-.5817.14915-.2429.27483-.5028.37713-.7798.098-.277.179-.5433.2429-.799l.3324-1.2784c.1023-.4176.2408-.8459.4155-1.2848.1747-.4389.4048-.8459.6903-1.2209.2855-.375.6392-.6776 1.0611-.9077.4219-.2343.9268-.3515 1.5149-.3515.7415 0 1.3999.1917 1.9751.5753.5753.3792 1.0292.9311 1.3615 1.6555.3324.7202.4986 1.5916.4986 2.6143 0 .9802-.1555 1.8282-.4666 2.5441-.3111.7159-.7521 1.2763-1.3231 1.6811-.5753.4048-1.2571.6285-2.0455.6711V60.098c.473-.0383.8672-.1918 1.1825-.4602.3111-.2727.5434-.62.6968-1.0419.1491-.4262.2237-.8928.2237-1.3999 0-.5582-.0874-1.0547-.2621-1.4893-.179-.4389-.4261-.7841-.7415-1.0355-.3196-.2515-.6924-.3772-1.1186-.3772-.3878 0-.7052.1108-.9524.3324-.2471.2173-.4517.5135-.6136.8885-.162.3708-.3047.7905-.4283 1.2592l-.4219 1.5469c-.2855 1.0483-.7052 1.8793-1.2592 2.4929-.554.6094-1.28693.9141-2.19886.9141-.75427 0-1.41265-.2046-1.97515-.6137-.5625-.409-.99929-.963-1.31037-1.6619-.31534-.6988-.47301-1.4872-.47301-2.365 0-.8864.15554-1.6684.46662-2.3459.31108-.6818.73935-1.2188 1.2848-1.6108.5412-.3921 1.16336-.5966 1.86648-.6137v1.9049zM12.1705 48.22H18v1.9112H4.90909v-1.8856h4.87074v-.1215c-.52841-.2301-.94816-.5817-1.25923-1.0547-.31108-.473-.46662-1.0909-.46662-1.8537 0-.6733.13849-1.2613.41548-1.7642.27699-.5071.69034-.8991 1.24006-1.1761.54548-.2813 1.22728-.4219 2.04548-.4219H18v1.9112h-6.0149c-.7202 0-1.2784.1854-1.6747.5561-.4006.3708-.60088.8864-.60088 1.5469 0 .4517.09588.8566.28764 1.2145.19174.3537.47304.6328.84374.8374.3665.2003.8097.3004 1.3296.3004zm6.0468-11.7742c0 .6222-.115 1.1847-.3451 1.6875-.2344.5029-.5732.9013-1.0164 1.1954-.4432.2897-.9865.4346-1.6299.4346-.554 0-1.01-.1065-1.3679-.3196-.358-.2131-.6414-.5007-.8502-.8629-.2088-.3622-.3665-.7671-.473-1.2145-.1065-.4474-.1875-.9034-.2429-1.3679-.0682-.5881-.1236-1.0653-.1662-1.4318-.0469-.3665-.1214-.6328-.2237-.799-.1023-.1662-.2685-.2493-.4986-.2493h-.0447c-.5583 0-.9908.1577-1.2976.473-.30684.3111-.46025.7756-.46025 1.3935 0 .6434.14276 1.1505.42825 1.5213.2813.3664.5945.62.9396.7606l-.409 1.7962c-.59663-.2131-1.07817-.5242-1.44464-.9332-.37074-.4134-.63921-.8885-.8054-1.4255-.17046-.5369-.25568-1.1015-.25568-1.6939 0-.392.04687-.8075.14062-1.2464.08949-.4432.25568-.8565.49858-1.2401.2429-.3878.5902-.7052 1.0419-.9524.44742-.2471 1.02912-.3707 1.74502-.3707H18v1.8665h-1.3423v.0767c.2471.1235.49.3089.7287.5561.2386.2471.4368.5646.5944.9524.1577.3878.2365.8523.2365 1.3934zm-1.5341-.4154c0-.5284-.1044-.9802-.3132-1.3552-.2088-.3792-.4815-.6669-.8182-.8629-.3409-.2003-.7052-.3004-1.093-.3004h-1.2656c.0682.0682.1321.2003.1917.3963.0554.1918.1044.4112.1471.6584.0383.2471.0745.4879.1086.7223.0299.2344.0554.4304.0767.5881.0469.3707.1257.7095.2365 1.0163.1108.3025.2706.5454.4794.7287.2046.179.4773.2684.8182.2684.473 0 .831-.1747 1.0739-.5241.2386-.3494.3579-.7947.3579-1.3359zM18 29.055H8.18182v-1.8473h1.55966v-.1022c-.52841-.179-.9439-.4943-1.24645-.9461-.30682-.4559-.46023-.9715-.46023-1.5468 0-.1193.00426-.26.01278-.4219.00853-.1662.01918-.2962.03196-.3899h1.82813c-.02131.0767-.04475.213-.07031.4091-.02983.196-.04475.392-.04475.588 0 .4517.09588.8544.28769 1.2081.1875.3495.4495.6265.7862.831.3324.2045.7116.3068 1.1378.3068H18v1.9112zm.1982-10.7881c0 .9673-.2067 1.8004-.6201 2.4993-.4176.6946-1.0035 1.2315-1.7578 1.6108-.7585.375-1.647.5625-2.6655.5625-1.0057 0-1.892-.1875-2.6591-.5625-.76701-.3793-1.36573-.9077-1.79613-1.5853-.4304-.6818-.64559-1.4787-.64559-2.3906 0-.554.09161-1.0909.27485-1.6108s.47088-.9865.86293-1.3999c.39204-.4133.90124-.7393 1.52774-.9779.6221-.2387 1.3785-.358 2.2691-.358h.6776v7.8047h-1.4318v-5.9318c-.5029 0-.9482.1023-1.336.3068-.392.2045-.701.4922-.92681.8629-.22585.3665-.33878.7969-.33878 1.2912 0 .5369.1321 1.0057.39629 1.4063.26.3963.6009.7031 1.0227.9204.4177.2131.8715.3196 1.3616.3196h1.1186c.6562 0 1.2144-.115 1.6747-.3451.4602-.2344.8118-.5604 1.0547-.978.2386-.4176.3579-.9056.3579-1.4638 0-.3622-.0511-.6925-.1534-.9908-.1065-.2983-.2642-.5561-.473-.7734-.2088-.2173-.4666-.3835-.7734-.4986l.326-1.8089c.5326.1448.9992.4048 1.3998.7798.3963.3707.7053.8373.9269 1.3998.2173.5583.326 1.1954.326 1.9113zM9 .25c-.41422 0-.75.335786-.75.75v6.75c0 .41421.33579.75.75.75s.75-.33579.75-.75v-6h6c.4142 0 .75-.33579.75-.750001 0-.414213-.3358-.75-.75-.75L9 .25zm9.5303 9.21967l-8.99997-9-1.06066 1.06066 9.00003 8.99997 1.0606-1.06063z" fill="#111"/></svg>