<svg width="22" height="121" viewBox="0 0 22 121" fill="none" xmlns="http://www.w3.org/2000/svg"><path d="M4.90909 109.328H18v1.969H6.59659v6.162H18v1.969H4.90909v-10.1zm13.28911-7.002c0 .92-.211 1.723-.6329 2.409-.4218.687-1.012 1.219-1.7706 1.598-.7585.38-1.6448.569-2.659.569-1.0185 0-1.9091-.189-2.6719-.569-.76281-.379-1.35514-.911-1.77701-1.598-.42188-.686-.63281-1.489-.63281-2.409 0-.921.21093-1.724.63281-2.4102.42187-.686 1.0142-1.2187 1.77701-1.598.7628-.3792 1.6534-.5689 2.6719-.5689 1.0142 0 1.9005.1897 2.659.5689.7586.3793 1.3488.912 1.7706 1.598.4219.6862.6329 1.4892.6329 2.4102zm-1.6045-.007c0-.596-.1576-1.091-.473-1.483-.3153-.392-.735-.682-1.2592-.869-.5241-.1918-1.1016-.2877-1.7322-.2877-.6265 0-1.2017.0959-1.7259.2877-.5284.187-.9524.477-1.272.869-.31961.392-.47941.887-.47941 1.483 0 .601.1598 1.1.47941 1.496.3196.392.7436.684 1.272.876.5242.187 1.0994.281 1.7259.281.6306 0 1.2081-.094 1.7322-.281.5242-.192.9439-.484 1.2592-.876.3154-.396.473-.895.473-1.496zm4.238-5.7446h-4.4872v-.799c-.1875-.2046-.4113-.3771-.6712-.5178-.2599-.1449-.5689-.2663-.9269-.3643-.3579-.1023-.7755-.1875-1.2528-.2557-.4815-.0682-1.0312-.1278-1.6491-.179l-3.66268-.3068v-6.6733h8.16268V85.97h4.4872v1.8665H18v6.8458h2.8317v1.8921zm-4.4872-2.8445V89.345H9.81818v3.0937l2.02632.2046c1.0312.098 1.9261.2216 2.6846.3707.7543.1492 1.3594.3878 1.8154.7159zm1.8537-13.8595c0 .9673-.2067 1.8004-.6201 2.4993-.4176.6946-1.0035 1.2315-1.7578 1.6108-.7585.375-1.647.5625-2.6655.5625-1.0057 0-1.892-.1875-2.6591-.5625-.76701-.3793-1.36573-.9077-1.79613-1.5853-.4304-.6818-.64559-1.4787-.64559-2.3906 0-.554.09161-1.0909.27485-1.6108s.47088-.9865.86293-1.3998c.39204-.4134.90124-.7394 1.52774-.978.6221-.2387 1.3785-.358 2.2691-.358h.6776v7.8047h-1.4318v-5.9318c-.5029 0-.9482.1023-1.336.3068-.392.2046-.701.4922-.92681.8629-.22585.3665-.33878.7969-.33878 1.2912 0 .537.1321 1.0057.39629 1.4063.26.3963.6009.7031 1.0227.9204.4177.2131.8715.3196 1.3616.3196h1.1186c.6562 0 1.2144-.115 1.6747-.3451.4602-.2344.8118-.5604 1.0547-.978.2386-.4176.3579-.9056.3579-1.4638 0-.3622-.0511-.6925-.1534-.9908-.1065-.2983-.2642-.5561-.473-.7734-.2088-.2173-.4666-.3835-.7734-.4986l.326-1.8089c.5326.1449.9992.4048 1.3998.7798.3963.3707.7053.8374.9269 1.3999.2173.5582.326 1.1953.326 1.9112zM18 74.3109l-1.6555.0064v-.3516c0-.2727-.0576-.5007-.1726-.6839-.1193-.1875-.3196-.3409-.6009-.4602-.2812-.1194-.669-.211-1.1633-.2749-.4986-.0639-1.125-.1108-1.8793-.1406l-4.34658-.1726v-6.8523H18v1.8729H9.83096v3.2088l3.33664.1534c.8097.0384 1.5171.1214 2.1222.2493.6051.1236 1.1101.3047 1.5149.5433.4006.2386.701.5455.9013.9205.196.375.294.8309.294 1.3679v.6136zm-2.6783-13.3514l-7.13988-4.3274-.00001-2.0582H18v1.8728h-7.1463L18 60.755v2.0774H8.18182v-1.8729h7.13988zm-5.49074-7.7376H8.18181v-8.284h1.64915v3.2024H18v1.8664H9.83096v3.2152zm1.72584-11.7437v-2.8509c0-1.2017.2983-2.1264.8949-2.7741.5966-.6478 1.3658-.9716 2.3075-.9716.6137 0 1.1655.1449 1.6556.4346.49.2898.8778.7138 1.1633 1.272.2813.5583.4219 1.238.4219 2.0391v4.2891H8.18181v-1.8729h8.16899v-2.4162c0-.5497-.1427-1.0014-.4282-1.3551-.2898-.3537-.6584-.5305-1.1058-.5305-.4731 0-.8587.1768-1.157.5305-.3026.3537-.4538.8054-.4538 1.3551v2.8509h-1.6492zm6.6413-12.8752c0 .9503-.2151 1.7684-.6455 2.4545-.4347.6818-1.0334 1.206-1.7962 1.5725-.7628.3664-1.6364.5497-2.6208.5497-.9971 0-1.8771-.1875-2.6399-.5625-.76701-.375-1.36573-.9034-1.79613-1.5852-.4304-.6819-.6456-1.4851-.6456-2.4098 0-.7458.1385-1.4106.41549-1.9944.27272-.5838.65625-1.0546 1.15056-1.4126.49428-.3622 1.07178-.5774 1.73228-.6456v1.8601c-.4603.1023-.8566.3366-1.189.7031-.33234.3622-.49853.848-.49853 1.4574 0 .5327.14062.9993.42183 1.3999.277.3963.6733.7052 1.189.9268.5113.2216 1.1164.3324 1.8153.3324.7159 0 1.3338-.1087 1.8537-.326.5199-.2173.9226-.5242 1.2081-.9205.2855-.4005.4283-.8714.4283-1.4126 0-.3622-.0661-.6903-.1982-.9844-.1364-.2983-.3302-.5476-.5817-.7478-.2514-.2046-.5539-.3473-.9076-.4283v-1.8601c.6349.0682 1.2017.2749 1.7002.62.4986.3452.8907.8076 1.1762 1.3871.2855.5753.4282 1.2507.4282 2.0263zM18 16.6706H9.81178v2.3523c0 .5582.12998.9929.38992 1.304.2599.3111.6009.4666 1.0227.4666.4176 0 .7543-.1428 1.01-.4283.2514-.2897.3771-.6946.3771-1.2145v-3.0362h1.5469v3.0362c0 .7245-.1193 1.3509-.358 1.8793-.2429.5242-.5859.929-1.0291 1.2145-.4432.2812-.9673.4219-1.5724.4219-.6179 0-1.1506-.1449-1.59805-.4347-.45171-.294-.80114-.7138-1.0483-1.2592-.24716-.5497-.37074-1.1996-.37074-1.9496v-4.1484H18v1.7961zm0 6.4432l-4.9602-2.7677v-1.956L18 21.1578v1.956zM9 .25c-.41422 0-.75.335787-.75.75v6.75c0 .41421.33579.75.75.75s.75-.33579.75-.75v-6h6c.4142 0 .75-.33579.75-.750001 0-.414213-.3358-.75-.75-.75L9 .25zm9.5303 9.21967l-8.99997-9-1.06066 1.06066 9.00003 8.99997 1.0606-1.06063z" fill="#FEFEFE"/></svg>