<svg width="63" height="22" viewBox="0 0 63 22" fill="none" xmlns="http://www.w3.org/2000/svg">
<path d="M8.57812 8.34801C8.50994 7.7429 8.22869 7.27415 7.73437 6.94176C7.24006 6.60511 6.6179 6.43679 5.8679 6.43679C5.33097 6.43679 4.86648 6.52202 4.47443 6.69247C4.08239 6.85866 3.7777 7.08878 3.56037 7.38281C3.3473 7.67258 3.24077 8.00284 3.24077 8.37358C3.24077 8.68466 3.31321 8.95312 3.4581 9.17898C3.60724 9.40483 3.80114 9.59446 4.03977 9.74787C4.28267 9.89702 4.54261 10.0227 4.8196 10.125C5.09659 10.223 5.36293 10.304 5.61861 10.3679L6.89702 10.7003C7.31463 10.8026 7.7429 10.9411 8.18182 11.1158C8.62074 11.2905 9.0277 11.5206 9.4027 11.8061C9.7777 12.0916 10.0803 12.4453 10.3104 12.8672C10.5447 13.2891 10.6619 13.794 10.6619 14.3821C10.6619 15.1236 10.4702 15.782 10.0866 16.3572C9.70739 16.9325 9.15554 17.3864 8.43111 17.7188C7.71094 18.0511 6.83949 18.2173 5.81676 18.2173C4.83665 18.2173 3.98864 18.0618 3.27273 17.7507C2.55682 17.4396 1.99645 16.9986 1.59162 16.4276C1.18679 15.8523 0.963068 15.1705 0.920455 14.3821H2.90199C2.94034 14.8551 3.09375 15.2493 3.36222 15.5646C3.63494 15.8757 3.98224 16.108 4.40412 16.2614C4.83026 16.4105 5.29687 16.4851 5.80398 16.4851C6.36222 16.4851 6.85867 16.3977 7.29332 16.223C7.73224 16.044 8.07742 15.7969 8.32884 15.4815C8.58026 15.1619 8.70597 14.7891 8.70597 14.3629C8.70597 13.9751 8.59517 13.6577 8.37358 13.4105C8.15625 13.1634 7.86009 12.9588 7.48509 12.7969C7.11435 12.6349 6.6946 12.4922 6.22585 12.3686L4.67898 11.9467C3.63068 11.6612 2.79972 11.2415 2.18608 10.6875C1.5767 10.1335 1.27202 9.40057 1.27202 8.48864C1.27202 7.73437 1.47656 7.07599 1.88565 6.51349C2.29474 5.95099 2.84872 5.5142 3.54759 5.20313C4.24645 4.88778 5.0348 4.73011 5.91264 4.73011C6.79901 4.73011 7.58097 4.88565 8.25852 5.19673C8.94034 5.50781 9.47727 5.93608 9.86932 6.48153C10.2614 7.02273 10.4659 7.64489 10.483 8.34801H8.57812ZM14.78 12.1705L14.78 18H12.8688L12.8688 4.90909L14.7544 4.90909L14.7544 9.77983H14.8759C15.106 9.25142 15.4576 8.83168 15.9306 8.5206C16.4036 8.20952 17.0215 8.05398 17.7843 8.05398C18.4576 8.05398 19.0456 8.19247 19.5485 8.46946C20.0556 8.74645 20.4476 9.1598 20.7246 9.70952C21.0059 10.255 21.1465 10.9368 21.1465 11.755V18H19.2353V11.9851C19.2353 11.2649 19.0499 10.7067 18.6792 10.3104C18.3084 9.9098 17.7928 9.70952 17.1323 9.70952C16.6806 9.70952 16.2757 9.8054 15.9178 9.99716C15.5641 10.1889 15.285 10.4702 15.0804 10.8409C14.8801 11.2074 14.78 11.6506 14.78 12.1705ZM26.5542 18.2173C25.932 18.2173 25.3695 18.1023 24.8667 17.8722C24.3638 17.6378 23.9654 17.299 23.6713 16.8558C23.3816 16.4126 23.2367 15.8693 23.2367 15.2259C23.2367 14.6719 23.3432 14.2159 23.5563 13.858C23.7694 13.5 24.057 13.2166 24.4192 13.0078C24.7814 12.799 25.1863 12.6413 25.6337 12.5348C26.0811 12.4283 26.5371 12.3473 27.0016 12.2919C27.5897 12.2237 28.0669 12.1683 28.4334 12.1257C28.7999 12.0788 29.0662 12.0043 29.2324 11.902C29.3986 11.7997 29.4817 11.6335 29.4817 11.4034V11.3587C29.4817 10.8004 29.324 10.3679 29.0087 10.0611C28.6976 9.75426 28.2331 9.60085 27.6152 9.60085C26.9718 9.60085 26.4647 9.74361 26.0939 10.0291C25.7275 10.3104 25.4739 10.6236 25.3333 10.9688L23.5371 10.5597C23.7502 9.96307 24.0613 9.48153 24.4703 9.11506C24.8837 8.74432 25.3588 8.47585 25.8958 8.30966C26.4327 8.1392 26.9973 8.05398 27.5897 8.05398C27.9817 8.05398 28.3972 8.10085 28.8361 8.1946C29.2793 8.28409 29.6926 8.45028 30.0762 8.69318C30.464 8.93608 30.7814 9.28338 31.0286 9.73509C31.2757 10.1825 31.3993 10.7642 31.3993 11.4801V18H29.5328V16.6577H29.4561C29.3326 16.9048 29.1472 17.1477 28.9 17.3864C28.6529 17.625 28.3354 17.8232 27.9476 17.9808C27.5598 18.1385 27.0953 18.2173 26.5542 18.2173ZM26.9696 16.6832C27.498 16.6832 27.9498 16.5788 28.3248 16.37C28.704 16.1612 28.9917 15.8885 29.1877 15.5518C29.388 15.2109 29.4881 14.8466 29.4881 14.4588V13.1932C29.4199 13.2614 29.2878 13.3253 29.0918 13.3849C28.9 13.4403 28.6806 13.4893 28.4334 13.532C28.1863 13.5703 27.9455 13.6065 27.7111 13.6406C27.4767 13.6705 27.2807 13.696 27.123 13.7173C26.7523 13.7642 26.4135 13.843 26.1067 13.9538C25.8042 14.0646 25.5613 14.2244 25.378 14.4332C25.199 14.6378 25.1096 14.9105 25.1096 15.2514C25.1096 15.7244 25.2843 16.0824 25.6337 16.3253C25.9831 16.5639 26.4284 16.6832 26.9696 16.6832ZM33.945 18V8.18182H35.7923V9.74148H35.8945C36.0735 9.21307 36.3888 8.79758 36.8406 8.49503C37.2965 8.18821 37.8121 8.0348 38.3874 8.0348C38.5067 8.0348 38.6474 8.03906 38.8093 8.04759C38.9755 8.05611 39.1055 8.06676 39.1992 8.07955V9.90767C39.1225 9.88636 38.9862 9.86293 38.7901 9.83736C38.5941 9.80753 38.3981 9.79261 38.2021 9.79261C37.7504 9.79261 37.3477 9.88849 36.994 10.0803C36.6445 10.2678 36.3675 10.5298 36.163 10.8665C35.9585 11.1989 35.8562 11.5781 35.8562 12.0043V18H33.945ZM44.7331 18.1982C43.7658 18.1982 42.9327 17.9915 42.2338 17.5781C41.5392 17.1605 41.0023 16.5746 40.623 15.8203C40.248 15.0618 40.0605 14.1733 40.0605 13.1548C40.0605 12.1491 40.248 11.2628 40.623 10.4957C41.0023 9.72869 41.5307 9.12997 42.2083 8.69957C42.8901 8.26918 43.687 8.05398 44.5989 8.05398C45.1529 8.05398 45.6898 8.1456 46.2097 8.32884C46.7296 8.51207 47.1962 8.79972 47.6096 9.19176C48.0229 9.58381 48.3489 10.093 48.5875 10.7195C48.8262 11.3416 48.9455 12.098 48.9455 12.9886V13.6662H41.1408V12.2344H47.0726C47.0726 11.7315 46.9703 11.2862 46.7658 10.8984C46.5613 10.5064 46.2736 10.1974 45.9029 9.97159C45.5364 9.74574 45.106 9.63281 44.6117 9.63281C44.0748 9.63281 43.606 9.76491 43.2054 10.0291C42.8091 10.2891 42.5023 10.63 42.285 11.0518C42.0719 11.4695 41.9654 11.9233 41.9654 12.4134V13.532C41.9654 14.1882 42.0804 14.7464 42.3105 15.2067C42.5449 15.6669 42.8709 16.0185 43.2885 16.2614C43.7061 16.5 44.1941 16.6193 44.7523 16.6193C45.1145 16.6193 45.4448 16.5682 45.7431 16.4659C46.0414 16.3594 46.2992 16.2017 46.5165 15.9929C46.7338 15.7841 46.9 15.5263 47.0151 15.2195L48.824 15.5455C48.6792 16.0781 48.4192 16.5447 48.0442 16.9453C47.6735 17.3416 47.2069 17.6506 46.6444 17.8722C46.0861 18.0895 45.449 18.1982 44.7331 18.1982Z" fill="#111111"/>
<path d="M62.75 9C62.75 8.58579 62.4142 8.25 62 8.25H55.25C54.8358 8.25 54.5 8.58579 54.5 9C54.5 9.41421 54.8358 9.75 55.25 9.75L61.25 9.75L61.25 15.75C61.25 16.1642 61.5858 16.5 62 16.5C62.4142 16.5 62.75 16.1642 62.75 15.75V9ZM53.5303 18.5303L62.5303 9.53033L61.4697 8.46967L52.4697 17.4697L53.5303 18.5303Z" fill="#111111"/>
</svg>
