<svg width="22" height="121" viewBox="0 0 22 121" fill="none" xmlns="http://www.w3.org/2000/svg">
<path d="M4.90909 109.328L18 109.328L18 111.297L6.59659 111.297L6.59659 117.459L18 117.459L18 119.428L4.90909 119.428L4.90909 109.328ZM18.1982 102.326C18.1982 103.246 17.9872 104.049 17.5653 104.735C17.1435 105.422 16.5533 105.954 15.7947 106.333C15.0362 106.713 14.1499 106.902 13.1357 106.902C12.1172 106.902 11.2266 106.713 10.4638 106.333C9.70099 105.954 9.10866 105.422 8.68679 104.735C8.26491 104.049 8.05398 103.246 8.05398 102.326C8.05398 101.405 8.26491 100.602 8.68679 99.9158C9.10866 99.2298 9.70099 98.6971 10.4638 98.3178C11.2266 97.9386 12.1172 97.7489 13.1357 97.7489C14.1499 97.7489 15.0362 97.9386 15.7947 98.3178C16.5533 98.6971 17.1435 99.2298 17.5653 99.9158C17.9872 100.602 18.1982 101.405 18.1982 102.326ZM16.5937 102.319C16.5937 101.723 16.4361 101.228 16.1207 100.836C15.8054 100.444 15.3857 100.154 14.8615 99.967C14.3374 99.7752 13.7599 99.6793 13.1293 99.6793C12.5028 99.6793 11.9276 99.7752 11.4034 99.967C10.875 100.154 10.451 100.444 10.1314 100.836C9.81179 101.228 9.65199 101.723 9.65199 102.319C9.65199 102.92 9.81179 103.419 10.1314 103.815C10.451 104.207 10.875 104.499 11.4034 104.691C11.9276 104.878 12.5028 104.972 13.1293 104.972C13.7599 104.972 14.3374 104.878 14.8615 104.691C15.3857 104.499 15.8054 104.207 16.1207 103.815C16.4361 103.419 16.5937 102.92 16.5937 102.319ZM20.8317 96.5744L16.3445 96.5744L16.3445 95.7754C16.157 95.5708 15.9332 95.3983 15.6733 95.2576C15.4134 95.1127 15.1044 94.9913 14.7464 94.8933C14.3885 94.791 13.9709 94.7058 13.4936 94.6376C13.0121 94.5694 12.4624 94.5098 11.8445 94.4586L8.18182 94.1518L8.18182 87.4785L16.3445 87.4785L16.3445 85.97L20.8317 85.97L20.8317 87.8365L18 87.8365L18 94.6823L20.8317 94.6823L20.8317 96.5744ZM16.3445 93.7299L16.3445 89.345L9.81818 89.345L9.81818 92.4387L11.8445 92.6433C12.8757 92.7413 13.7706 92.8649 14.5291 93.014C15.2834 93.1632 15.8885 93.4018 16.3445 93.7299ZM18.1982 79.8704C18.1982 80.8377 17.9915 81.6708 17.5781 82.3697C17.1605 83.0643 16.5746 83.6012 15.8203 83.9805C15.0618 84.3555 14.1733 84.543 13.1548 84.543C12.1491 84.543 11.2628 84.3555 10.4957 83.9805C9.72869 83.6012 9.12997 83.0728 8.69957 82.3952C8.26917 81.7134 8.05398 80.9165 8.05398 80.0046C8.05398 79.4506 8.14559 78.9137 8.32883 78.3938C8.51207 77.8739 8.79971 77.4073 9.19176 76.994C9.5838 76.5806 10.093 76.2546 10.7195 76.016C11.3416 75.7773 12.098 75.658 12.9886 75.658L13.6662 75.658L13.6662 83.4627L12.2344 83.4627L12.2344 77.5309C11.7315 77.5309 11.2862 77.6332 10.8984 77.8377C10.5064 78.0423 10.1974 78.3299 9.97159 78.7006C9.74574 79.0671 9.63281 79.4975 9.63281 79.9918C9.63281 80.5288 9.76491 80.9975 10.0291 81.3981C10.2891 81.7944 10.63 82.1012 11.0518 82.3185C11.4695 82.5316 11.9233 82.6381 12.4134 82.6381L13.532 82.6381C14.1882 82.6381 14.7464 82.5231 15.2067 82.293C15.6669 82.0586 16.0185 81.7326 16.2614 81.315C16.5 80.8974 16.6193 80.4094 16.6193 79.8512C16.6193 79.489 16.5682 79.1587 16.4659 78.8604C16.3594 78.5621 16.2017 78.3043 15.9929 78.087C15.7841 77.8697 15.5263 77.7035 15.2195 77.5884L15.5455 75.7795C16.0781 75.9244 16.5447 76.1843 16.9453 76.5593C17.3416 76.93 17.6506 77.3967 17.8722 77.9592C18.0895 78.5174 18.1982 79.1545 18.1982 79.8704ZM18 74.3109L16.3445 74.3173L16.3445 73.9657C16.3445 73.693 16.2869 73.465 16.1719 73.2818C16.0526 73.0943 15.8523 72.9409 15.571 72.8216C15.2898 72.7022 14.902 72.6106 14.4077 72.5467C13.9091 72.4828 13.2827 72.4359 12.5284 72.4061L8.18182 72.2335L8.18182 65.3812L18 65.3812L18 67.2541L9.83096 67.2541L9.83096 70.4629L13.1676 70.6163C13.9773 70.6547 14.6847 70.7377 15.2898 70.8656C15.8949 70.9892 16.3999 71.1703 16.8047 71.4089C17.2053 71.6475 17.5057 71.9544 17.706 72.3294C17.902 72.7044 18 73.1603 18 73.6973L18 74.3109ZM15.3217 60.9595L8.18182 56.6321L8.18181 54.5739L18 54.5739L18 56.4467L10.8537 56.4467L18 60.755L18 62.8324L8.18182 62.8324L8.18182 60.9595L15.3217 60.9595ZM9.83096 53.2219L8.18181 53.2219L8.18181 44.9379L9.83096 44.9379L9.83096 48.1403L18 48.1403L18 50.0067L9.83096 50.0067L9.83096 53.2219ZM11.5568 41.4782L11.5568 38.6273C11.5568 37.4256 11.8551 36.5009 12.4517 35.8532C13.0483 35.2054 13.8175 34.8816 14.7592 34.8816C15.3729 34.8816 15.9247 35.0265 16.4148 35.3162C16.9048 35.606 17.2926 36.03 17.5781 36.5882C17.8594 37.1465 18 37.8262 18 38.6273L18 42.9164L8.18181 42.9164L8.18181 41.0435L16.3508 41.0435L16.3508 38.6273C16.3508 38.0776 16.2081 37.6259 15.9226 37.2722C15.6328 36.9185 15.2642 36.7417 14.8168 36.7417C14.3437 36.7417 13.9581 36.9185 13.6598 37.2722C13.3572 37.6259 13.206 38.0776 13.206 38.6273L13.206 41.4782L11.5568 41.4782ZM18.1981 28.603C18.1981 29.5533 17.983 30.3714 17.5526 31.0575C17.1179 31.7393 16.5192 32.2635 15.7564 32.63C14.9936 32.9964 14.12 33.1797 13.1356 33.1797C12.1385 33.1797 11.2585 32.9922 10.4957 32.6172C9.72869 32.2422 9.12997 31.7138 8.69957 31.032C8.26917 30.3501 8.05397 29.5469 8.05397 28.6222C8.05397 27.8764 8.19247 27.2116 8.46946 26.6278C8.74218 26.044 9.12571 25.5732 9.62002 25.2152C10.1143 24.853 10.6918 24.6378 11.3523 24.5696L11.3523 26.4297C10.892 26.532 10.4957 26.7663 10.1633 27.1328C9.83096 27.495 9.66477 27.9808 9.66477 28.5902C9.66477 29.1229 9.80539 29.5895 10.0866 29.9901C10.3636 30.3864 10.7599 30.6953 11.2756 30.9169C11.7869 31.1385 12.392 31.2493 13.0909 31.2493C13.8068 31.2493 14.4247 31.1406 14.9446 30.9233C15.4645 30.706 15.8672 30.3991 16.1527 30.0028C16.4382 29.6023 16.581 29.1314 16.581 28.5902C16.581 28.228 16.5149 27.8999 16.3828 27.6058C16.2464 27.3075 16.0526 27.0582 15.8011 26.858C15.5497 26.6534 15.2472 26.5107 14.8935 26.4297L14.8935 24.5696C15.5284 24.6378 16.0952 24.8445 16.5937 25.1896C17.0923 25.5348 17.4844 25.9972 17.7699 26.5767C18.0554 27.152 18.1981 27.8274 18.1981 28.603ZM18 16.6706L9.81178 16.6706L9.81178 19.0229C9.81178 19.5811 9.94176 20.0158 10.2017 20.3269C10.4616 20.638 10.8026 20.7935 11.2244 20.7935C11.642 20.7935 11.9787 20.6507 12.2344 20.3652C12.4858 20.0755 12.6115 19.6706 12.6115 19.1507L12.6115 16.1145L14.1584 16.1145L14.1584 19.1507C14.1584 19.8752 14.0391 20.5016 13.8004 21.03C13.5575 21.5542 13.2145 21.959 12.7713 22.2445C12.3281 22.5257 11.804 22.6664 11.1989 22.6664C10.581 22.6664 10.0483 22.5215 9.60085 22.2317C9.14914 21.9377 8.79971 21.5179 8.55255 20.9725C8.30539 20.4228 8.18181 19.7729 8.18181 19.0229L8.18181 14.8745L18 14.8745L18 16.6706ZM18 23.1138L13.0398 20.3461L13.0398 18.3901L18 21.1578L18 23.1138Z" fill="#111111"/>
<path d="M9 0.25C8.58578 0.25 8.25 0.585786 8.25 1L8.25 7.75C8.25 8.16421 8.58579 8.5 9 8.5C9.41421 8.5 9.75 8.16421 9.75 7.75L9.75 1.75L15.75 1.75C16.1642 1.75 16.5 1.41421 16.5 0.999999C16.5 0.585786 16.1642 0.249999 15.75 0.249999L9 0.25ZM18.5303 9.46967L9.53033 0.46967L8.46967 1.53033L17.4697 10.5303L18.5303 9.46967Z" fill="#111111"/>
</svg>
