<svg width="30" height="30" viewBox="0 0 30 30" fill="none" xmlns="http://www.w3.org/2000/svg"><path fill-rule="evenodd" clip-rule="evenodd" d="M28.4004 7.73438c.2086-.66094 0-1.14141-.9229-1.14141H24.409c-.774 0-1.1315.4207-1.3401.8707 0 0-1.5785 3.84373-3.7828 6.33573-.7148.7207-1.0423.961-1.4297.961-.2085 0-.4769-.2403-.4769-.9006V7.70332c0-.78047-.2379-1.14082-.8936-1.14082h-4.8257c-.477 0-.7747.36035-.7747.7207 0 .75059 1.1022.93106 1.2211 3.0328v4.5668c0 .9908-.1757 1.1719-.566 1.1719-1.0424 0-3.57419-3.8736-5.09294-8.28751-.29532-.87422-.59532-1.20469-1.36993-1.20469H1.97988c-.89355 0-1.04238.42012-1.04238.8707 0 .81094 1.04238 4.8943 4.85508 10.299 2.53183 3.6914 6.13592 5.6754 9.38262 5.6754 1.9664 0 2.2043-.4506 2.2043-1.2012v-2.7925c0-.9006.1787-1.0506.8045-1.0506.4465 0 1.251.2396 3.068 2.0115 2.0847 2.1018 2.4421 3.0627 3.6041 3.0627h3.0679c.8936 0 1.3108-.4506 1.0723-1.3213-.2678-.8707-1.2809-2.1316-2.5916-3.6328-.7149-.8402-1.7871-1.7713-2.1147-2.2219-.4464-.6006-.3275-.8408 0-1.381-.0298 0 3.7237-5.34495 4.1104-7.14847" fill="#111"/></svg>