<svg width="30" height="30" viewBox="0 0 30 30" fill="none" xmlns="http://www.w3.org/2000/svg"><path d="M15 2.5c-1.6415 0-3.267.32332-4.7835.95151a12.499528 12.499528 0 00-4.05533 2.70966C3.81696 8.50537 2.5 11.6848 2.5 15c0 5.525 3.5875 10.2125 8.55 11.875.625.1.825-.2875.825-.625v-2.1125c-3.4625.75-4.2-1.675-4.2-1.675-.575-1.45-1.3875-1.8375-1.3875-1.8375-1.1375-.775.0875-.75.0875-.75 1.25.0875 1.9125 1.2875 1.9125 1.2875 1.0875 1.9 2.925 1.3375 3.6375 1.0375.1125-.8125.4375-1.3625.7875-1.675-2.775-.3125-5.6875-1.3875-5.6875-6.15 0-1.3875.475-2.5 1.2875-3.3875-.125-.3125-.5625-1.6125.125-3.3 0 0 1.05-.3375 3.4375 1.275.9875-.275 2.0625-.4125 3.125-.4125s2.1375.1375 3.125.4125c2.3875-1.6125 3.4375-1.275 3.4375-1.275.6875 1.6875.25 2.9875.125 3.3.8125.8875 1.2875 2 1.2875 3.3875 0 4.775-2.925 5.825-5.7125 6.1375.45.3875.8625 1.15.8625 2.3125v3.425c0 .3375.2.7375.8375.625C23.925 25.2 27.5 20.525 27.5 15c0-1.6415-.3233-3.267-.9515-4.7835-.6282-1.51661-1.5489-2.8946-2.7097-4.05533-1.1607-1.16074-2.5387-2.08148-4.0553-2.70966C18.267 2.82332 16.6415 2.5 15 2.5z" fill="#111"/></svg>