<svg width="22" height="83" viewBox="0 0 22 83" fill="none" xmlns="http://www.w3.org/2000/svg">
<path d="M18 78.9538L4.90909 82.6484L4.90909 80.098L14.5291 77.7393L14.5291 77.6179L4.90909 75.0994L4.90909 72.7791L14.5355 70.2543L14.5355 70.1392L4.90909 67.7805L4.90909 65.2301L18 68.9247L18 71.2642L8.81463 73.8849L8.81463 73.9872L18 76.6143L18 78.9538ZM18.1982 59.3606C18.1982 60.3279 17.9915 61.161 17.5781 61.8599C17.1605 62.5545 16.5746 63.0914 15.8203 63.4707C15.0618 63.8457 14.1733 64.0332 13.1548 64.0332C12.1491 64.0332 11.2628 63.8457 10.4957 63.4707C9.72869 63.0914 9.12997 62.563 8.69957 61.8855C8.26918 61.2037 8.05398 60.4068 8.05398 59.4949C8.05398 58.9409 8.1456 58.4039 8.32883 57.8841C8.51207 57.3642 8.79971 56.8975 9.19176 56.4842C9.58381 56.0708 10.093 55.7448 10.7195 55.5062C11.3416 55.2676 12.098 55.1483 12.9886 55.1483L13.6662 55.1483L13.6662 62.9529L12.2344 62.9529L12.2344 57.0211C11.7315 57.0211 11.2862 57.1234 10.8984 57.3279C10.5064 57.5325 10.1974 57.8201 9.97159 58.1909C9.74574 58.5574 9.63281 58.9877 9.63281 59.4821C9.63281 60.019 9.76491 60.4877 10.0291 60.8883C10.2891 61.2846 10.63 61.5914 11.0518 61.8088C11.4695 62.0218 11.9233 62.1284 12.4134 62.1284L13.532 62.1284C14.1882 62.1284 14.7464 62.0133 15.2067 61.7832C15.6669 61.5488 16.0185 61.2228 16.2614 60.8052C16.5 60.3876 16.6193 59.8997 16.6193 59.3414C16.6193 58.9792 16.5682 58.649 16.4659 58.3507C16.3594 58.0524 16.2017 57.7946 15.9929 57.5772C15.7841 57.3599 15.5263 57.1937 15.2195 57.0787L15.5455 55.2697C16.0781 55.4146 16.5447 55.6745 16.9453 56.0495C17.3416 56.4203 17.6506 56.8869 17.8722 57.4494C18.0895 58.0076 18.1982 58.6447 18.1982 59.3606ZM18 52.8743L4.90909 52.8743L4.90909 50.9631L9.77344 50.9631L9.77344 50.848C9.56889 50.7372 9.33238 50.5774 9.06392 50.3686C8.79545 50.1598 8.56108 49.87 8.36079 49.4993C8.15625 49.1286 8.05398 48.6385 8.05398 48.0291C8.05398 47.2365 8.25426 46.5291 8.65483 45.907C9.0554 45.2848 9.63281 44.7969 10.3871 44.4432C11.1413 44.0852 12.049 43.9062 13.1101 43.9062C14.1712 43.9062 15.081 44.0831 15.8395 44.4368C16.5937 44.7905 17.1754 45.2763 17.5845 45.8942C17.9893 46.5121 18.1918 47.2173 18.1918 48.0099C18.1918 48.6065 18.0916 49.0945 17.8913 49.4737C17.691 49.8487 17.4567 50.1428 17.1882 50.3558C16.9197 50.5689 16.6811 50.733 16.4723 50.848L16.4723 51.0078L18 51.0078L18 52.8743ZM13.0909 51.0014C13.7812 51.0014 14.3864 50.9013 14.9062 50.701C15.4261 50.5007 15.8331 50.2109 16.1271 49.8317C16.4169 49.4524 16.5618 48.9879 16.5618 48.4382C16.5618 47.8672 16.4105 47.3899 16.108 47.0064C15.8011 46.6229 15.3857 46.3331 14.8615 46.1371C14.3374 45.9368 13.7472 45.8366 13.0909 45.8366C12.4432 45.8366 11.8615 45.9347 11.3459 46.1307C10.8303 46.3224 10.4233 46.6122 10.125 47C9.8267 47.3835 9.67756 47.8629 9.67756 48.4382C9.67756 48.9922 9.82031 49.4609 10.1058 49.8445C10.3913 50.2237 10.7898 50.5114 11.3011 50.7074C11.8125 50.9034 12.4091 51.0014 13.0909 51.0014ZM9.16619 30.7338L9.16619 32.7282C8.74005 32.8049 8.36505 32.9476 8.04119 33.1564C7.71733 33.3652 7.44247 33.6209 7.21662 33.9235C6.99076 34.226 6.82031 34.5648 6.70525 34.9398C6.5902 35.3105 6.53267 35.7047 6.53267 36.1223C6.53267 36.8766 6.7223 37.552 7.10156 38.1486C7.48082 38.7409 8.03693 39.2097 8.76988 39.5549C9.50284 39.8958 10.3977 40.0662 11.4545 40.0662C12.5199 40.0662 13.419 39.8958 14.152 39.5549C14.8849 39.2097 15.4389 38.7388 15.8139 38.1422C16.1889 37.5456 16.3764 36.8745 16.3764 36.1287C16.3764 35.7154 16.321 35.3233 16.2102 34.9526C16.0952 34.5776 15.9268 34.2388 15.7053 33.9363C15.4837 33.6337 15.2131 33.378 14.8935 33.1692C14.5696 32.9561 14.1989 32.8091 13.7812 32.7282L13.7876 30.7338C14.4311 30.8404 15.0234 31.0471 15.5646 31.3539C16.1016 31.6564 16.566 32.0463 16.9581 32.5236C17.3459 32.9966 17.6463 33.5378 17.8594 34.1472C18.0724 34.7566 18.179 35.4213 18.179 36.1415C18.179 37.275 17.9105 38.285 17.3736 39.1713C16.8324 40.0577 16.0589 40.7566 15.0533 41.2679C14.0476 41.775 12.848 42.0286 11.4545 42.0286C10.0568 42.0286 8.85724 41.7729 7.85582 41.2615C6.85014 40.7502 6.07883 40.0513 5.5419 39.1649C5.00071 38.2786 4.73011 37.2708 4.73011 36.1415C4.73011 35.4469 4.83025 34.7992 5.03054 34.1983C5.22656 33.5932 5.51633 33.0499 5.89986 32.5684C6.27912 32.0868 6.74361 31.6884 7.29332 31.373C7.83878 31.0577 8.46307 30.8446 9.16619 30.7338ZM4.90909 26.6126L18 26.6126L18 28.5238L4.90909 28.5238L4.90909 26.6126ZM18 24.0414L8.18182 24.0414L8.18182 22.1301L18 22.1301L18 24.0414ZM6.6669 23.0762C6.6669 23.4086 6.5561 23.6941 6.33451 23.9327C6.10866 24.1671 5.8402 24.2843 5.52912 24.2843C5.21378 24.2843 4.94531 24.1671 4.72372 23.9327C4.49787 23.6941 4.38494 23.4086 4.38494 23.0762C4.38494 22.7438 4.49787 22.4604 4.72372 22.226C4.94531 21.9874 5.21378 21.8681 5.52912 21.8681C5.8402 21.8681 6.10866 21.9874 6.33451 22.226C6.5561 22.4604 6.6669 22.7438 6.6669 23.0762ZM18.1982 15.4233C18.1982 16.3736 17.983 17.1918 17.5526 17.8778C17.1179 18.5597 16.5192 19.0838 15.7564 19.4503C14.9936 19.8168 14.12 20 13.1357 20C12.1385 20 11.2585 19.8125 10.4957 19.4375C9.72869 19.0625 9.12997 18.5341 8.69957 17.8523C8.26917 17.1705 8.05397 16.3672 8.05397 15.4425C8.05397 14.6967 8.19247 14.032 8.46946 13.4482C8.74218 12.8643 9.12571 12.3935 9.62002 12.0355C10.1143 11.6733 10.6918 11.4581 11.3523 11.3899L11.3523 13.25C10.892 13.3523 10.4957 13.5866 10.1633 13.9531C9.83096 14.3153 9.66477 14.8011 9.66477 15.4105C9.66477 15.9432 9.80539 16.4098 10.0866 16.8104C10.3636 17.2067 10.7599 17.5156 11.2756 17.7372C11.7869 17.9588 12.392 18.0696 13.0909 18.0696C13.8068 18.0696 14.4247 17.9609 14.9446 17.7436C15.4645 17.5263 15.8672 17.2195 16.1527 16.8232C16.4382 16.4226 16.581 15.9517 16.581 15.4105C16.581 15.0483 16.5149 14.7202 16.3828 14.4261C16.2464 14.1278 16.0526 13.8786 15.8011 13.6783C15.5497 13.4737 15.2472 13.331 14.8935 13.25L14.8935 11.3899C15.5284 11.4581 16.0952 11.6648 16.5937 12.0099C17.0923 12.3551 17.4844 12.8175 17.7699 13.397C18.0554 13.9723 18.1982 14.6477 18.1982 15.4233ZM14.6697 7.58825L12.3366 7.60103L12.3366 7.26864L8.18181 3.35671L8.18181 1.06836L12.9119 5.53001L12.9119 5.83043L14.6697 7.58825ZM18 9.34606L4.90909 9.34606L4.90909 7.43484L18 7.43484L18 9.34606ZM18 3.14577L13.3338 6.6614L11.9979 5.34464L18 0.799892L18 3.14577Z" fill="#FEFEFE"/>
</svg>
